<?xml version="1.0" standalone="no"?>
<!DOCTYPE svg PUBLIC "-//W3C//DTD SVG 1.1//EN" "http://www.w3.org/Graphics/SVG/1.1/DTD/svg11.dtd" >
<svg xmlns="http://www.w3.org/2000/svg" xmlns:xlink="http://www.w3.org/1999/xlink" version="1.1">
<metadata></metadata>
<defs>
<font id="smoolthanregular" horiz-adv-x="1243" >
<font-face units-per-em="2048" ascent="1638" descent="-410" />
<missing-glyph horiz-adv-x="533" />
<glyph unicode="&#xd;" horiz-adv-x="1200" />
<glyph horiz-adv-x="0" />
<glyph horiz-adv-x="0" />
<glyph unicode=" "  horiz-adv-x="533" />
<glyph unicode="&#x09;" horiz-adv-x="533" />
<glyph unicode="&#xa0;" horiz-adv-x="533" />
<glyph unicode="!" horiz-adv-x="653" d="M204 1324q0 31 22 53q22 21 52 21h131l-48 -970q0 -31 -22 -53q-22 -21 -52 -21h-35zM228 14v110q0 31 23 52q23 22 56 22h78v-110q0 -31 -23 -53q-23 -21 -55 -21h-79z" />
<glyph unicode="&#x22;" horiz-adv-x="811" d="M166 1387q0 31 46 31h85l-33 -490q0 -31 -46 -31h-20zM467 1417h84q46 0 46 -31l-32 -489h-20q-46 0 -46 31z" />
<glyph unicode="#" horiz-adv-x="1052" d="M39 505v22h205l64 312h-217q-21 0 -37 15q-15 16 -15 37v22h284l89 428q6 25 21 41q16 16 43 16h31l-100 -485h293l89 428q6 25 21 41q16 16 43 16h31l-100 -485h134q22 0 38 -15q14 -16 14 -37v-22h-201l-65 -312h214q22 0 37 -15t15 -37v-22h-281l-79 -382 q-6 -25 -21 -41q-16 -16 -43 -16h-31l90 439h-293l-79 -382q-6 -25 -21 -41q-16 -16 -43 -16h-31l90 439h-137q-22 0 -37 16q-15 15 -15 36zM327 527h294l64 312h-293z" />
<glyph unicode="$" horiz-adv-x="1144" d="M43 1017q0 187 139 298q118 93 304 101v122q0 31 22 52q21 22 52 22h34v-198q190 -17 373 -82v-50q0 -33 -23 -56t-52 -23q-152 47 -298 62v-480q26 -3 41 -5q194 -30 282 -93q120 -89 120 -278v-12q-4 -186 -150 -296q-117 -86 -293 -98v-122q0 -30 -21 -52 q-22 -22 -53 -22h-34v197q-198 15 -390 84v49q0 33 23 56t52 23q162 -51 315 -64v499q-23 5 -35 7q-198 30 -283 87q-125 85 -125 272zM200 1017q0 -133 142 -183q27 -10 144 -30v466q-114 -9 -188 -62q-98 -71 -98 -191zM594 151q105 10 177 57q109 70 109 188 q0 145 -139 202q-36 15 -147 36v-483z" />
<glyph unicode="%" horiz-adv-x="1470" d="M50 938v168q0 228 280 228q279 0 279 -228v-168q0 -228 -279 -228q-280 0 -280 228zM128 938q0 -80 39 -122q49 -53 163 -53t163 53q39 42 39 122v168q0 80 -39 122q-49 52 -163 52t-163 -52q-39 -42 -39 -122v-168zM509 14l274 1327q6 25 21 41q16 16 43 16h31 l-274 -1327q-6 -25 -21 -41q-16 -16 -43 -16h-31zM778 318v168q0 228 280 228q279 0 279 -228v-168q0 -228 -279 -228q-280 0 -280 228zM856 318q0 -80 39 -122q49 -53 163 -53t163 53q39 42 39 122v168q0 80 -39 122q-49 52 -163 52t-163 -52q-39 -42 -39 -122v-168z" />
<glyph unicode="&#x26;" horiz-adv-x="1222" d="M61 404q0 238 258 328q-198 92 -198 297q0 186 143 292q130 96 329 96h1q129 0 368 -85v-50q0 -33 -23 -56t-53 -23q-214 67 -292 67q-135 0 -219 -56q-97 -64 -97 -185q0 -156 138 -204q52 -19 285 -39q189 -16 274 -76q122 -88 122 -306v-390h-83q-30 0 -52 21 q-22 22 -22 53v87q-220 -170 -425 -174h-13q-189 0 -304 87q-137 105 -137 316zM218 404q0 -134 85 -205q75 -63 197 -63h11q113 2 245 71q138 74 184 167v30q0 121 -66 178q-84 71 -294 73q-165 0 -247 -41q-115 -60 -115 -210z" />
<glyph unicode="'" horiz-adv-x="534" d="M180 1386q0 31 46 31h85l-33 -489q0 -31 -46 -31h-20z" />
<glyph unicode="(" horiz-adv-x="744" d="M226 355v517q0 344 142 539q132 181 337 186v-107q-143 -23 -237 -153q-101 -139 -101 -465v-517q0 -326 101 -465q94 -130 237 -153v-107q-205 5 -337 186q-142 195 -142 539z" />
<glyph unicode=")" horiz-adv-x="761" d="M6 -263q143 23 237 153q101 139 101 465v517q0 326 -101 465q-94 130 -237 153v107q205 -5 337 -186q142 -195 142 -539v-517q0 -344 -142 -539q-132 -181 -337 -186v107z" />
<glyph unicode="*" horiz-adv-x="994" d="M109 1130q0 39 25 88l310 -140l-33 266v9q0 70 93 70q25 0 43 -2l-38 -340l244 114q18 8 33 8q62 0 80 -114l-334 -69l184 -196q20 -23 20 -46q0 -51 -85 -95l-169 295l-130 -234q-23 -36 -54 -36q-44 0 -99 55l228 252l-263 51q-55 14 -55 64z" />
<glyph unicode="+" horiz-adv-x="1216" d="M100 715v35h410v358q0 21 20 37q23 15 56 15h36v-410h357q21 0 37 -20q15 -23 15 -56v-36h-409v-357q0 -20 -20 -36q-24 -16 -57 -16h-35v409h-358q-20 0 -36 20q-16 24 -16 57z" />
<glyph unicode="," horiz-adv-x="522" d="M86 -338q88 143 88 462q0 31 23 52q23 22 55 22h79v-17q0 -255 -177 -490q-22 -29 -39 -29h-29z" />
<glyph unicode="-" horiz-adv-x="914" d="M148 532v35h522q21 0 37 -20q15 -23 15 -56v-36h-522q-20 0 -36 20q-16 24 -16 57z" />
<glyph unicode="." horiz-adv-x="512" d="M166 14v110q0 31 23 52q23 22 55 22h79v-110q0 -31 -23 -53q-23 -21 -56 -21h-78z" />
<glyph unicode="/" horiz-adv-x="645" d="M155 14l274 1327q6 25 21 41q16 16 43 16h31l-274 -1327q-6 -25 -21 -41q-16 -16 -43 -16h-31z" />
<glyph unicode="0" horiz-adv-x="1226" d="M167 518v375q0 516 476 516q475 0 475 -516v-375q0 -516 -475 -516q-476 0 -476 516zM315 518q0 -175 64 -265q79 -113 264 -113t264 113q63 90 63 265v375q0 175 -63 265q-79 112 -264 112t-264 -112q-64 -90 -64 -265v-375z" />
<glyph unicode="1" horiz-adv-x="960" d="M56 88v65h368v1148l-223 -285h-31q-37 0 -58 32q-11 17 -11 32q0 12 7 25l141 207q55 86 141 86h117q30 0 52 -21q22 -22 22 -53v-1170h294q30 0 52 -22t22 -52v-66h-819q-30 0 -52 21q-22 22 -22 53z" />
<glyph unicode="2" horiz-adv-x="1114" d="M117 88v41q0 145 110 263q71 75 249 190q188 118 254 185q118 118 118 262q0 121 -96 185q-85 56 -220 56q-107 0 -321 -67q-30 0 -53 23t-23 56v50q239 85 397 85q198 0 328 -94q145 -106 145 -294q0 -274 -333 -491q-219 -141 -246 -162q-121 -98 -141 -223l651 1 q30 0 52 -22t22 -52v-66h-819q-30 0 -52 21q-22 22 -22 53z" />
<glyph unicode="3" horiz-adv-x="1114" d="M74 88v49q0 33 23 56t53 23q237 -74 335 -74q218 0 308 76q68 62 68 186q0 123 -69 180q-87 71 -307 71h-155v141h155q187 8 258 69q58 51 58 164q0 121 -97 185q-84 56 -219 56q-78 0 -292 -67q-30 0 -53 23t-23 56v50q239 85 368 85h1q199 0 330 -96q142 -106 142 -292 q0 -205 -199 -298q259 -80 259 -327q0 -402 -533 -402q-172 0 -411 86z" />
<glyph unicode="4" horiz-adv-x="1147" d="M104 431v98l501 784q55 85 141 85h116q31 0 53 -21q21 -22 21 -53v-827h102q31 0 54 -23q23 -22 23 -54v-66h-179v-340h-82q-31 0 -53 21q-21 22 -21 53v266h-599q-32 0 -54 23q-23 23 -23 54zM264 497h516v811z" />
<glyph unicode="5" horiz-adv-x="1204" d="M175 88v50q0 32 23 55t52 23q238 -74 358 -74q347 2 347 320q0 178 -65 244t-238 66q-163 0 -321 -79v-70q0 -30 -21 -52q-22 -22 -53 -22h-82v775q0 31 21 53q22 21 53 21h862v-65q0 -32 -22 -54q-23 -23 -55 -23h-703v-422q186 86 321 86q246 0 352 -103 q107 -106 107 -355q0 -457 -503 -460q-194 0 -433 86z" />
<glyph unicode="6" horiz-adv-x="1219" d="M171 462v498q2 239 127 347q117 102 366 102q172 0 411 -86v-50q0 -32 -23 -56q-23 -23 -53 -23q-214 68 -335 68q-177 0 -254 -66q-82 -71 -82 -245v-120q203 89 321 89q246 0 351 -103q108 -106 108 -355q0 -460 -463 -460h-6q-244 1 -355 108q-113 109 -113 352z M328 462q0 -168 67 -241q71 -78 244 -79q173 1 245 79q67 73 67 241q0 178 -65 244t-237 66q-142 0 -321 -81v-229z" />
<glyph unicode="7" horiz-adv-x="993" d="M-5 1333v65h864q32 0 55 -23q22 -22 22 -54v-99l-544 -1208h-179l560 1241h-701q-32 0 -54 23q-23 23 -23 55z" />
<glyph unicode="8" horiz-adv-x="1307" d="M152 398q0 251 249 333q-189 89 -189 318q0 182 146 281q130 87 327 87q198 0 327 -87q146 -99 146 -281q0 -229 -188 -318q249 -82 249 -333q0 -396 -534 -396q-533 0 -533 396zM309 398q0 -124 70 -183q87 -73 306 -73q220 0 307 73q70 59 70 183q0 125 -70 183 q-87 74 -307 74q-219 0 -306 -74q-70 -58 -70 -183zM369 1049q0 -116 58 -173q73 -72 258 -80q185 8 259 80q58 57 58 173q0 115 -102 175q-83 50 -214 51q-131 0 -215 -50q-102 -60 -102 -176z" />
<glyph unicode="9" horiz-adv-x="1185" d="M128 948q0 461 464 461h4q245 -2 356 -109q113 -109 113 -352v-498q-2 -239 -127 -346q-117 -102 -366 -102q-172 0 -411 86v49q0 33 23 56t53 23q214 -67 335 -67q177 0 254 65q82 71 82 245v121q-204 -89 -321 -89q-246 0 -351 103q-108 105 -108 354zM285 948 q0 -177 65 -244q64 -66 237 -66q141 0 321 81v229q0 169 -67 242q-72 77 -245 79q-173 -2 -244 -79q-67 -73 -67 -242z" />
<glyph unicode=":" horiz-adv-x="354" d="M76 14v110q0 31 23 52q23 22 55 22h79v-110q0 -31 -23 -53q-23 -21 -56 -21h-78zM76 631v111q0 30 23 52t56 22h78v-111q0 -30 -23 -52t-55 -22h-79z" />
<glyph unicode=";" horiz-adv-x="367" d="M2 -338q88 143 88 462q0 31 23 52q23 22 55 22h79v-17q0 -255 -177 -490q-22 -29 -39 -29h-29zM90 631v111q0 30 23 52t55 22h79v-111q0 -30 -23 -52t-56 -22h-78z" />
<glyph unicode="&#x3c;" horiz-adv-x="1025" d="M-9 682v67l936 471q6 -22 6 -54q0 -95 -89 -124l-651 -326l651 -327q89 -29 89 -124q0 -32 -6 -54z" />
<glyph unicode="=" horiz-adv-x="1100" d="M63 532v35h879q21 0 37 -20q15 -23 15 -56v-36h-879q-20 0 -36 20q-16 24 -16 57zM63 878v35h879q21 0 37 -20q15 -24 15 -57v-35h-879q-20 0 -36 20q-16 24 -16 57z" />
<glyph unicode="&#x3e;" horiz-adv-x="1050" d="M47 265q0 95 89 124l651 326l-651 327q-89 29 -89 124q0 32 6 54l936 -471v-67l-936 -471q-6 22 -6 54z" />
<glyph unicode="?" horiz-adv-x="937" d="M-69 1282v50q239 85 461 85q195 0 324 -102q139 -111 139 -298q0 -205 -152 -288q-85 -47 -339 -84l-11 -217q0 -31 -22 -53q-22 -21 -52 -21h-36l-24 367q0 32 22 54q23 23 54 23q404 0 404 219q0 120 -99 191q-86 62 -208 62q-171 0 -385 -67q-30 0 -53 23t-23 56z M218 14v110q0 31 23 52q23 22 55 22h79v-110q0 -31 -23 -53q-23 -21 -56 -21h-78z" />
<glyph unicode="@" horiz-adv-x="1647" d="M87 509q0 390 165 581q177 207 557 207t557 -207q165 -191 165 -581q0 -171 -70 -283q-61 -94 -152 -125q-40 -13 -74 -13q-41 0 -75 19q-65 33 -65 171q-104 -214 -316 -214q-381 0 -381 445t411 445q410 0 410 -445v-219q0 -51 31 -71q14 -10 29 -10q19 0 40 16 q84 65 84 284q0 676 -594 676q-595 0 -595 -676t595 -676q321 0 722 111v-52q0 -64 -64 -83q-346 -88 -658 -88q-380 0 -557 207q-165 191 -165 581zM523 509q0 -154 52 -231q67 -98 227 -98q224 0 293 194v135q0 329 -286 329t-286 -329z" />
<glyph unicode="A" horiz-adv-x="1225" d="M31 14l378 1297q25 98 123 98h142q98 0 123 -99l378 -1296h-73q-98 0 -124 100l-64 221h-623l-64 -222q-25 -99 -123 -99h-73zM333 475h540l-228 789h-84z" />
<glyph unicode="B" horiz-adv-x="1259" d="M99 14v1015q0 186 153 293q138 96 338 96h4q202 -1 339 -97q152 -107 152 -292q0 -201 -198 -298q145 -45 207 -141q51 -84 51 -186q0 -184 -106 -276q-130 -114 -447 -114h-493zM256 154h336q221 0 316 70q80 60 80 180q0 121 -80 181q-95 71 -316 71h-336v-502z M256 795h275q225 0 317 62q80 54 80 172q0 121 -107 187q-90 55 -228 55h-5q-135 0 -224 -55q-108 -65 -108 -187v-234z" />
<glyph unicode="C" horiz-adv-x="1131" d="M50 523v374q0 246 155 386q149 135 399 135q222 0 461 -86v-50q0 -32 -24 -55q-23 -23 -52 -23q-215 67 -385 67q-177 0 -285 -98q-112 -102 -112 -276v-374q0 -175 112 -276q108 -98 285 -98q170 0 385 67q29 0 52 -23q24 -23 24 -55v-50q-239 -86 -461 -86 q-250 0 -399 135q-155 139 -155 386z" />
<glyph unicode="D" horiz-adv-x="1342" d="M84 14v883q0 246 155 386q149 135 399 135q249 0 398 -135q155 -140 155 -386v-362q0 -247 -155 -386q-149 -135 -398 -135h-554zM241 154h397q176 0 284 98q112 101 112 275v370q0 174 -112 276q-108 98 -284 98q-177 0 -285 -98q-112 -102 -112 -276v-743z" />
<glyph unicode="E" horiz-adv-x="1119" d="M39 523v374q0 246 155 386q149 135 398 135q223 0 462 -86v-50q0 -32 -24 -55q-23 -23 -52 -23q-214 67 -386 67q-176 0 -284 -98q-112 -102 -112 -276v-102h691q31 0 52 -21q22 -22 22 -53v-65h-765v-133q0 -175 112 -276q108 -98 284 -98q172 0 386 67q29 0 52 -23 q24 -23 24 -55v-50q-239 -86 -462 -86q-249 0 -398 135q-155 139 -155 386z" />
<glyph unicode="F" horiz-adv-x="1135" d="M93 14v883q0 246 155 386q149 135 399 135q222 0 461 -86v-50q0 -32 -23 -55q-24 -23 -53 -23q-215 67 -385 67q-177 0 -285 -98q-112 -102 -112 -276v-102h691q31 0 52 -21q22 -22 22 -53v-65h-765v-564q0 -32 -23 -55t-56 -23h-78z" />
<glyph unicode="G" horiz-adv-x="1252" d="M41 523v374q0 246 155 386q149 135 398 135q223 0 462 -86v-50q0 -32 -24 -55q-23 -23 -52 -23q-214 67 -386 67q-176 0 -284 -98q-112 -102 -112 -276v-374q0 -374 336 -374q233 0 426 210v263q0 30 21 52q22 22 53 22h82v-682h-82q-31 0 -53 22q-21 22 -21 52v143 q-170 -229 -426 -229q-243 0 -369 135q-124 133 -124 386z" />
<glyph unicode="H" horiz-adv-x="1287" d="M108 14v1385h83q30 0 52 -22t22 -52v-549h696v549q0 30 22 52t52 22h83v-1385h-83q-30 0 -52 22t-22 52v548h-696v-548q0 -30 -22 -52t-52 -22h-83z" />
<glyph unicode="I" horiz-adv-x="435" d="M108 14v1311q0 30 22 52t52 22h83v-1311q0 -30 -22 -52t-52 -22h-83z" />
<glyph unicode="J" horiz-adv-x="904" d="M24 16v64q0 31 22 53t52 22q55 -6 98 -6q176 0 284 98q113 101 113 276v802q0 30 21 52q22 22 53 22h82v-876q0 -247 -154 -386q-150 -135 -399 -135q-84 0 -172 14z" />
<glyph unicode="K" horiz-adv-x="1175" d="M108 14v1385h83q30 0 52 -22t22 -52v-549h316q105 1 141 26q45 28 75 133l117 409q14 55 87 55h77l-146 -532q-20 -76 -85 -118q82 -54 126 -221l141 -514h-77q-73 0 -87 54l-130 457q-23 74 -61 96q-31 15 -116 15h-378v-548q0 -30 -22 -52t-52 -22h-83z" />
<glyph unicode="L" horiz-adv-x="1154" d="M84 523v883h78q33 0 56 -23t23 -55v-805q0 -175 112 -276q108 -98 285 -98q170 0 385 67q29 0 53 -23q23 -23 23 -55v-50q-239 -86 -461 -86q-250 0 -399 135q-155 139 -155 386z" />
<glyph unicode="M" horiz-adv-x="1777" d="M107 14v1314q0 32 23 55t55 23h95q84 -1 118 -86l460 -1187l461 1187q34 85 118 86h95q32 0 55 -23t23 -55v-1314h-78q-33 0 -56 23t-23 55v1192l-463 -1193q-30 -77 -99 -77h-65q-69 0 -99 77l-463 1193v-1192q0 -32 -23 -55t-56 -23h-78z" />
<glyph unicode="N" horiz-adv-x="1383" d="M107 14v1314q0 32 23 55t55 23h182l690 -1290v1290h157v-1314q0 -32 -23 -55t-55 -23h-182l-690 1290v-1212q0 -32 -23 -55t-56 -23h-78z" />
<glyph unicode="O" horiz-adv-x="1310" d="M50 523v374q0 246 155 386q149 135 398 135q250 0 399 -135q155 -140 155 -386v-374q0 -247 -155 -386q-149 -135 -399 -135q-249 0 -398 135q-155 139 -155 386zM207 523q0 -175 112 -276q108 -98 284 -98q177 0 285 98q112 101 112 276v374q0 174 -112 276 q-108 98 -285 98q-176 0 -284 -98q-112 -102 -112 -276v-374z" />
<glyph unicode="P" horiz-adv-x="1157" d="M101 14v1015q0 186 153 293q138 96 338 96h4q202 -1 339 -97q152 -107 152 -292q0 -430 -554 -430h-275v-511q0 -30 -22 -52t-52 -22h-83zM258 739h275q397 0 397 290q0 121 -107 187q-90 55 -228 55h-5q-135 0 -224 -55q-108 -65 -108 -187v-290z" />
<glyph unicode="Q" horiz-adv-x="1310" d="M50 523v374q0 246 155 386q149 135 399 135q249 0 398 -135q155 -140 155 -386v-374q0 -247 -155 -386q-118 -107 -306 -130l112 -247h-99q-63 0 -88 56l-85 189q-204 17 -331 132q-155 139 -155 386zM207 523q0 -175 112 -276q108 -98 285 -98q176 0 284 98 q112 101 112 276v374q0 174 -112 276q-108 98 -284 98q-177 0 -285 -98q-112 -102 -112 -276v-374z" />
<glyph unicode="R" horiz-adv-x="1185" d="M101 14v1015q0 186 153 293q138 96 338 96h4q202 -1 339 -97q152 -107 152 -292q0 -290 -272 -394q81 -51 152 -231l3 -7l174 -383h-99q-63 0 -88 56l-149 331l-39 88q-42 110 -211 110h-300v-511q0 -30 -22 -52t-52 -22h-83zM258 739h275q397 0 397 290q0 121 -107 187 q-90 55 -228 55h-5q-135 0 -224 -55q-108 -65 -108 -187v-290z" />
<glyph unicode="S" horiz-adv-x="1126" d="M39 1017q0 188 139 298q129 103 324 103q222 0 461 -86v-50q0 -32 -23 -55t-52 -23q-215 67 -386 67q-121 0 -208 -63q-98 -71 -98 -191q0 -132 142 -182q45 -17 293 -54q194 -30 282 -94q120 -88 120 -278v-12q-4 -186 -150 -295q-134 -100 -330 -100q-222 0 -461 86v50 q0 32 23 55t52 23q215 -67 386 -67q123 0 214 60q109 69 109 187q0 145 -139 202q-60 25 -291 60q-197 30 -282 87q-125 85 -125 272z" />
<glyph unicode="T" horiz-adv-x="962" d="M22 1333v66h905q30 0 52 -22t22 -52v-66h-411v-1171q0 -30 -22 -52t-52 -22h-83v1245h-337q-30 0 -52 22q-22 21 -22 52z" />
<glyph unicode="U" horiz-adv-x="1223" d="M96 391v1008h157v-1008q0 -122 108 -187q89 -55 224 -55h5q138 0 228 55q107 66 107 187v1008h157v-1008q0 -185 -152 -292q-137 -96 -339 -97q-203 0 -342 96q-153 107 -153 293z" />
<glyph unicode="V" horiz-adv-x="1166" d="M32 1398h73q98 0 123 -98l329 -1151h95l327 1150q26 99 124 99h73l-378 -1295q-25 -100 -123 -100h-142q-98 0 -123 98z" />
<glyph unicode="W" horiz-adv-x="2065" d="M32 1398h70q95 0 119 -98l335 -1189l335 1188q24 99 118 99h89q94 0 118 -98l335 -1189l335 1188q25 99 119 99h70l-365 -1295q-25 -100 -120 -100h-78q-94 0 -118 98l-340 1207l-340 -1205q-25 -100 -119 -100h-78q-95 0 -119 98z" />
<glyph unicode="X" horiz-adv-x="1160" d="M49 14l141 514q45 167 126 221q-65 42 -85 118l-146 532h77q73 0 88 -55l116 -409q30 -105 75 -133q37 -25 141 -26q105 1 141 26q45 28 75 133l117 409q14 55 87 55h77l-145 -532q-20 -76 -86 -118q82 -54 126 -221l141 -514h-77q-73 0 -87 54l-130 457q-23 74 -61 96 q-31 15 -115 15h-125q-85 0 -116 -15q-39 -22 -60 -96l-130 -457q-15 -54 -88 -54h-77z" />
<glyph unicode="Y" horiz-adv-x="1118" d="M31 1399h77q73 0 88 -55l130 -456q22 -75 60 -96q30 -16 116 -16h125q85 0 115 16q38 21 61 96l130 456q14 55 87 55h77l-141 -514q-43 -159 -98 -204q-53 -40 -215 -44v-549q0 -30 -22 -52t-52 -22h-83v623q-165 1 -214 39q-56 43 -100 209z" />
<glyph unicode="Z" horiz-adv-x="1086" d="M52 91v98l822 1067h-745q-32 0 -54 23q-23 22 -23 54v65h902q32 0 54 -22q23 -23 23 -55v-98l-822 -1067h744q32 0 54 -22q23 -23 23 -55v-65h-901q-32 0 -54 23q-23 22 -23 54z" />
<glyph unicode="[" horiz-adv-x="517" d="M114 -370v1967h303v-105h-162v-1757h162v-105h-303z" />
<glyph unicode="\" horiz-adv-x="586" d="M117 1398h31q27 0 43 -16q15 -16 21 -41l274 -1327h-31q-27 0 -43 16q-15 16 -21 41z" />
<glyph unicode="]" horiz-adv-x="517" d="M114 -265h162v1757h-162v105h303v-1967h-303v105z" />
<glyph unicode="^" horiz-adv-x="972" d="M124 819l340 593h67l341 -593h-134l-241 420l-239 -420h-134z" />
<glyph unicode="_" horiz-adv-x="1223" d="M114 -96h957q21 0 37 -20q15 -23 15 -56v-36h-957q-20 0 -36 20q-16 24 -16 57v35z" />
<glyph unicode="`" horiz-adv-x="603" d="M115 1309q16 103 72 103q20 0 42 -10l274 -241l-31 -37z" />
<glyph unicode="a" horiz-adv-x="1155" d="M82 518q0 516 476 516q475 0 475 -516v-504h-74q-30 0 -52 22q-22 21 -22 52v155q-115 -241 -362 -241q-441 0 -441 516zM230 518q0 -177 60 -265q76 -113 260 -113q257 0 335 223v155q0 175 -63 265q-79 113 -264 113t-264 -113q-64 -90 -64 -265z" />
<glyph unicode="b" horiz-adv-x="1165" d="M104 518v881h74q30 0 52 -22t22 -52v-532q116 241 362 241q441 0 441 -516t-475 -516q-476 0 -476 516zM252 518q0 -175 64 -265q79 -113 264 -113t264 113q63 90 63 265q0 177 -60 265q-76 113 -260 113q-256 0 -335 -223v-155z" />
<glyph unicode="c" horiz-adv-x="987" d="M82 518q0 516 476 516q237 0 387 -90v-76q0 -37 -33 -37q-14 0 -32 5q-163 60 -322 60q-185 0 -264 -113q-64 -90 -64 -265t64 -265q79 -113 264 -113q159 0 322 60q18 5 32 5q33 0 33 -37v-76q-150 -90 -387 -90q-476 0 -476 516z" />
<glyph unicode="d" horiz-adv-x="1166" d="M82 518q0 516 476 516q167 0 327 -60v351q0 30 22 52t52 22h74v-1385h-74q-30 0 -52 22q-22 21 -22 52v155q-115 -241 -362 -241q-441 0 -441 516zM230 518q0 -182 64 -271q77 -107 256 -107q256 0 335 223v471q-171 62 -327 62q-180 0 -260 -107q-68 -90 -68 -271z" />
<glyph unicode="e" horiz-adv-x="1051" d="M83 518q0 516 446 516q242 0 343 -149q82 -121 82 -366q0 -67 -74 -67h-645q8 -312 324 -312q159 0 322 60q18 5 32 5q33 0 33 -37v-76q-150 -90 -387 -90q-476 0 -476 516zM234 592h569q-12 156 -56 217q-63 87 -218 87q-157 0 -228 -85q-56 -67 -67 -219z" />
<glyph unicode="f" horiz-adv-x="668" d="M26 956v66h142v34q0 201 104 282q91 71 297 71q96 0 184 -20v-74q0 -54 -70 -54q-60 10 -114 10q-130 0 -185 -40q-68 -48 -68 -175v-34h271q31 0 52 -22q22 -21 22 -52v-66h-345v-794q0 -31 -22 -52q-22 -22 -52 -22h-74v868h-68q-31 0 -52 22q-22 21 -22 52z" />
<glyph unicode="g" horiz-adv-x="1154" d="M82 518q0 516 476 516q475 0 475 -516v-375q0 -516 -475 -516q-238 0 -388 91v75q0 38 33 38q13 0 32 -6q163 -60 323 -60q185 0 264 113q63 90 63 265v100q-115 -241 -362 -241q-441 0 -441 516zM230 518q0 -177 60 -265q76 -113 260 -113q256 0 335 223v155 q0 175 -63 265q-79 113 -264 113t-264 -113q-64 -90 -64 -265z" />
<glyph unicode="h" horiz-adv-x="1130" d="M132 14v1385h74q30 0 52 -22t22 -52v-532q116 241 362 241q353 0 353 -333v-687h-74q-30 0 -52 22q-22 21 -22 52v590q0 218 -232 218q-256 0 -335 -222v-586q0 -31 -22 -52q-22 -22 -52 -22h-74z" />
<glyph unicode="i" horiz-adv-x="394" d="M130 14v934q0 31 22 52q22 22 52 22h74v-934q0 -31 -22 -52q-22 -22 -52 -22h-74zM130 1214v111q0 30 22 52t52 22h74v-111q0 -30 -22 -52t-52 -22h-74z" />
<glyph unicode="j" horiz-adv-x="421" d="M-106 -238q116 0 171 40q68 48 68 176v970q0 31 22 52q22 22 52 22h74v-1044q0 -181 -83 -264q-74 -74 -235 -87q-28 0 -49 20q-20 21 -20 49v66zM133 1214v111q0 30 22 52t52 22h74v-111q0 -30 -22 -52q-21 -22 -52 -22h-74z" />
<glyph unicode="k" horiz-adv-x="1016" d="M134 14v1385h74q30 0 52 -22t22 -52v-737h272q100 0 125 66l105 309q20 59 98 59h68l-116 -345q-29 -86 -81 -122q73 -52 100 -132l138 -409h-68q-78 0 -96 53l-107 314q-22 67 -106 67h-332v-360q0 -31 -22 -52q-22 -22 -52 -22h-74z" />
<glyph unicode="l" horiz-adv-x="518" d="M127 347v1052h74q30 0 52 -22t22 -52v-978q0 -172 56 -190q27 -8 63 -8q24 0 51 4q70 0 70 -55v-74q-64 -15 -141 -15q-24 0 -47 2q-96 7 -148 73.5t-52 262.5z" />
<glyph unicode="m" horiz-adv-x="1662" d="M125 14v1008h74q30 0 52 -22q22 -21 22 -52v-155q116 241 309 241q249 0 313 -237q127 237 314 237q319 0 319 -333v-687h-74q-31 0 -52 22q-22 21 -22 52v590q0 125 -51 174q-45 44 -147 44q-203 0 -282 -222v-586q0 -31 -21 -52q-22 -22 -53 -22h-74v664q0 125 -51 174 q-44 44 -146 44q-203 0 -282 -222v-586q0 -31 -22 -52q-22 -22 -52 -22h-74z" />
<glyph unicode="n" horiz-adv-x="1120" d="M125 14v1008h74q30 0 52 -22q22 -21 22 -52v-155q116 241 362 241q353 0 353 -333v-687h-74q-30 0 -52 22q-22 21 -22 52v590q0 218 -232 218q-256 0 -335 -223v-585q0 -31 -22 -52q-22 -22 -52 -22h-74z" />
<glyph unicode="o" horiz-adv-x="1137" d="M82 518q0 516 476 516q475 0 475 -516t-475 -516q-476 0 -476 516zM230 518q0 -175 64 -266q79 -112 264 -112t264 112q63 91 63 266t-63 265q-79 112 -264 112t-264 -112q-64 -90 -64 -265z" />
<glyph unicode="p" horiz-adv-x="1180" d="M126 -363v1385h74q30 0 52 -22t22 -52v-155q116 241 362 241q441 0 441 -516t-475 -516q-167 0 -328 60v-351q0 -30 -22 -52t-52 -22h-74zM274 202q172 -62 328 -62q180 0 259 106q68 91 68 272q0 182 -64 271q-76 106 -256 106q-262 0 -335 -205v-488z" />
<glyph unicode="q" horiz-adv-x="1157" d="M82 518q0 516 476 516q475 0 475 -516v-881h-74q-30 0 -52 22t-22 52v531q-115 -240 -362 -240q-441 0 -441 516zM230 518q0 -177 60 -266q76 -112 260 -112q263 0 335 206v172q0 175 -63 265q-79 112 -264 112t-264 -112q-64 -90 -64 -265z" />
<glyph unicode="r" horiz-adv-x="826" d="M125 14v1008h74q30 0 52 -22t22 -52v-155q116 241 309 241q95 0 184 -20v-74q0 -54 -70 -54q-61 9 -141 9q-203 0 -282 -222v-585q0 -31 -22 -53q-22 -21 -52 -21h-74z" />
<glyph unicode="s" horiz-adv-x="893" d="M66 738q0 121 84 203q94 93 261 93q212 0 362 -91v-75q0 -38 -33 -38q-13 0 -32 6q-164 59 -297 59q-92 0 -145 -49q-49 -44 -49 -108q0 -82 101 -114q3 -2 206 -40q134 -24 196 -76q83 -68 83 -202v-9q-2 -120 -91 -203q-98 -92 -265 -92q-213 0 -363 90v75q0 38 34 38 q13 0 31 -5q164 -60 298 -60q91 0 150 48q55 45 55 109q0 92 -101 129q-27 11 -203 43q-134 24 -196 70q-86 65 -86 199z" />
<glyph unicode="t" horiz-adv-x="799" d="M47 956v66h145v197q0 31 22 52q22 22 52 22h74v-271h343q30 0 52 -22t22 -52v-66h-417v-527q0 -128 68 -176q56 -39 186 -39q54 0 114 9q70 0 70 -54v-74q-88 -19 -184 -19q-207 0 -298 71q-104 81 -104 282v527h-71q-30 0 -52 22q-22 21 -22 52z" />
<glyph unicode="u" horiz-adv-x="1124" d="M123 335v687h74q30 0 52 -22t22 -52v-590q0 -218 232 -218q263 0 335 206v602q0 30 22 52t52 22h74v-1008h-74q-30 0 -52 21q-22 22 -22 53v154q-115 -240 -362 -240q-353 0 -353 333z" />
<glyph unicode="v" horiz-adv-x="919" d="M19 1022h72q82 0 103 -80l257 -861l257 861q21 80 103 80h72l-278 -928q-21 -80 -103 -80h-102q-82 0 -103 80z" />
<glyph unicode="w" horiz-adv-x="1521" d="M25 1022h72q82 0 103 -79l212 -875l195 875q21 79 102 79h76q81 0 102 -80l221 -874l186 875q21 79 103 79h52l-188 -929q-21 -79 -103 -79h-103q-81 0 -102 80l-214 851l-173 -852q-21 -79 -103 -79h-102q-82 0 -103 80z" />
<glyph unicode="x" horiz-adv-x="947" d="M53 14l138 409q27 80 102 131q-54 37 -82 123l-117 345h68q78 0 99 -62l105 -307q24 -64 106 -65h22q82 1 106 65l105 307q21 62 99 62h68l-117 -345q-28 -86 -82 -123q75 -51 102 -131l138 -409h-68q-78 0 -98 56l-105 310q-22 68 -106 68h-106q-84 0 -106 -68 l-105 -310q-20 -56 -98 -56h-68z" />
<glyph unicode="y" horiz-adv-x="1127" d="M122 -208q0 38 34 38q13 0 31 -5q163 -60 323 -60q185 0 264 113q63 90 63 265v99q-115 -240 -362 -240q-353 0 -353 333v687h74q30 0 52 -22t22 -52v-590q0 -218 232 -218q256 0 335 223v585q0 30 22 52t52 22h74v-879q0 -516 -475 -516q-238 0 -388 90v75z" />
<glyph unicode="z" horiz-adv-x="860" d="M57 88v74l577 720h-503q-30 0 -52 22q-22 21 -22 52v66h674q30 0 52 -22t22 -52v-75l-577 -720h503q30 0 52 -21q22 -22 22 -53v-65h-674q-30 0 -52 21q-22 22 -22 53z" />
<glyph unicode="{" horiz-adv-x="784" d="M114 566v103l76 3q65 16 109 70q36 39 36 161q0 73 -13 179q-8 61 -8 117q0 183 82 297q90 109 225 109q36 0 63 -5v-104q-16 3 -44 3q-99 0 -161 -75q-35 -38 -35 -159q0 -74 13 -179q8 -63 8 -118q0 -184 -83 -298q-19 -23 -53 -53q34 -29 53 -52q82 -114 82 -297 q0 -56 -7 -118q-13 -106 -13 -179q0 -122 35 -160q62 -75 161 -75q28 0 44 3v-104q-27 -5 -63 -5q-135 0 -225 109q-82 114 -82 297q0 56 8 119q13 104 13 177q0 122 -36 161q-44 54 -109 70z" />
<glyph unicode="|" horiz-adv-x="322" d="M114 -261v1869q0 31 22 53q22 21 52 21h34v-1869q0 -31 -21 -53q-22 -21 -53 -21h-34z" />
<glyph unicode="}" horiz-adv-x="784" d="M114 -261q16 -3 44 -3q99 0 161 75q35 38 35 160q0 73 -12 179q-8 62 -8 118q0 183 82 297q19 23 53 52q-34 30 -53 53q-83 114 -83 298q0 55 8 118q13 105 13 179q0 121 -35 159q-62 75 -161 75q-28 0 -44 -3v104q27 5 63 5q135 0 225 -109q82 -114 82 -297 q0 -56 -8 -117q-13 -106 -13 -179q0 -122 36 -161q44 -54 109 -70l76 -3v-103l-76 -3q-65 -16 -109 -70q-36 -39 -36 -161q0 -73 13 -177q8 -63 8 -119q0 -183 -82 -297q-90 -109 -225 -109q-36 0 -63 5v104z" />
<glyph unicode="~" horiz-adv-x="995" d="M114 624v83q58 67 114.5 91.5t108.5 24.5q60 0 169 -44t166 -44q54 0 113 29q29 15 61 42l4 4q13 13 30 13q12 0 15 -2v-83q-58 -67 -114.5 -91.5t-108.5 -24.5q-54 0 -166 44t-169 44q-54 0 -113 -29q-29 -15 -61 -42l-4 -4q-13 -13 -30 -13q-12 0 -15 2z" />
<glyph unicode="&#xa1;" horiz-adv-x="902" d="M534 -362l48 970q0 31 22 53q22 21 52 21h35l48 -970q0 -31 -22 -53q-22 -21 -52 -21h-131zM558 838v110q0 31 23 53q23 21 55 21h79v-110q0 -31 -23 -52q-23 -22 -56 -22h-78z" />
<glyph unicode="&#xa2;" horiz-adv-x="1077" d="M114 518q0 516 476 516q27 0 64 -1l25 120q6 25 21 41q16 16 43 16h31l-39 -185q148 -25 242 -81v-76q0 -37 -33 -37q-14 0 -32 5q-96 35 -205 52l-153 -748h36q159 0 322 60q18 5 32 5q33 0 33 -37v-76q-150 -90 -387 -90q-27 0 -64 3l-26 -122q-6 -25 -21 -41 q-16 -16 -43 -16h-31l40 190q-331 79 -331 502zM262 518q0 -175 64 -265q47 -66 147 -99l152 742h-35q-185 0 -264 -113q-64 -90 -64 -265z" />
<glyph unicode="&#xa3;" horiz-adv-x="1273" d="M87 14v80q0 55 75 55q160 91 160 298q0 35 -4 72q0 20 -1 56h-151q-20 0 -36 20q-16 24 -16 57v35h189q-6 35 -10 53q-27 130 -27 233q0 221 126 309q140 136 370 136q172 0 411 -86v-50q0 -32 -23 -55q-24 -23 -53 -23q-215 67 -335 67q-157 0 -255 -98 q-80 -65 -80 -224q0 -91 27 -215q4 -18 10 -47h529q21 0 37 -20q15 -23 15 -56v-36h-567q1 -40 1 -65q1 -21 1 -41q0 -177 -94 -315h686q30 0 52 -22t22 -52v-66h-1059z" />
<glyph unicode="&#xa4;" horiz-adv-x="1094" d="M120 414l112 112q-39 91 -39 210q0 138 52 236l-80 79q-16 16 -16 40q0 5 1 9q8 33 35 61l31 31l123 -123q94 52 225 52q130 0 300 -93l-64 65l53 54q16 16 40 16q5 0 9 -1q33 -8 61 -35l31 -31l-115 -115q56 -101 56 -245q0 -125 -43 -218l58 -58q15 -15 15 -38 q0 -5 -1 -10q-8 -35 -35 -63l-31 -31l-95 94q-97 -61 -239 -61q-148 0 -245 67l-57 -56q-15 -15 -38 -15q-5 0 -10 1q-35 8 -63 35zM303 736q0 -133 51 -202q63 -86 210 -86t210 86q51 69 51 202t-51 201q-63 86 -210 86t-210 -86q-51 -68 -51 -201z" />
<glyph unicode="&#xa5;" horiz-adv-x="1284" d="M118 1399h77q73 0 88 -55l130 -456q22 -75 60 -96q30 -16 116 -16h125q85 0 115 16q38 21 61 96l130 456q14 55 87 55h77l-141 -514q-43 -159 -98 -204q-53 -40 -215 -44v-119h284q21 0 37 -20q15 -24 15 -57v-35h-336v-145h284q21 0 37 -20q15 -23 15 -56v-36h-336v-61 q0 -30 -22 -52t-52 -22h-83v135h-284q-20 0 -36 20q-16 24 -16 57v35h336v145h-284q-20 0 -36 20q-16 24 -16 57v35h336v119q-165 1 -214 39q-56 43 -100 209z" />
<glyph unicode="&#xa6;" horiz-adv-x="336" d="M114 235v803q0 14 22 23t52 9h34v-803q0 -14 -21 -23q-22 -9 -53 -9h-34zM114 -274v803q0 14 22 23t52 9h34v-803q0 -14 -21 -23q-22 -9 -53 -9h-34z" />
<glyph unicode="&#xa7;" horiz-adv-x="1097" d="M114 527q0 167 139 276q-22 14 -28 18q-111 75 -111 241q0 167 123 265q115 91 288 91q198 0 410 -76v-44q0 -28 -20 -48q-21 -20 -45 -20q-192 60 -345 60q-108 0 -186 -56q-88 -64 -88 -172q0 -119 128 -164q40 -15 261 -48q172 -27 251 -83q106 -78 106 -247v-11 q-4 -155 -133 -261q21 -13 26 -17q107 -78 107 -246v-11q-4 -165 -133 -262q-119 -88 -294 -88q-197 0 -409 76v43q0 28 20 48t45 20q192 -59 344 -59q110 0 192 53q98 62 98 168q0 131 -125 182q-54 22 -259 53q-176 27 -252 78q-110 75 -110 241zM251 527q0 -119 127 -164 q41 -15 261 -48q26 -4 53 -9q40 13 70 35q98 62 98 168q0 130 -125 181q-53 22 -259 54q-13 2 -26 3q-63 -13 -111 -49q-88 -63 -88 -171z" />
<glyph unicode="&#xa8;" horiz-adv-x="704" d="M114 1118v111q0 30 23 52t56 22h78v-111q0 -30 -23 -52t-55 -22h-79zM447 1192v111h78q33 0 56 -22t23 -52v-111h-79q-32 0 -55 22t-23 52z" />
<glyph unicode="&#xa9;" horiz-adv-x="1668" d="M184 706q0 338 142 504q152 178 482 178q329 0 481 -178q142 -166 142 -504q0 -339 -142 -504q-152 -178 -481 -178q-330 0 -482 178q-142 165 -142 504zM271 706q0 -609 537 -609q536 0 536 609t-536 609q-537 0 -537 -609zM510 594v224q0 145 91 227q87 79 234 79 q132 0 271 -50v-26q0 -41 -39 -41q-128 40 -232 40q-108 0 -174 -60q-69 -62 -69 -169v-224q0 -107 69 -169q66 -60 174 -60q104 0 232 40q39 0 39 -42v-25q-139 -50 -271 -50q-147 0 -234 79q-91 82 -91 227z" />
<glyph unicode="&#xaa;" horiz-adv-x="832" d="M114 1095q0 304 309 304t309 -304v-297h-44q-18 0 -31 12q-14 12 -14 27v113q-82 -159 -243 -159q-286 0 -286 304zM202 1095q0 -108 40 -162q52 -71 176 -71q173 0 225 139v94q0 106 -42 162q-54 70 -178 70q-125 0 -178 -70q-43 -56 -43 -162z" />
<glyph unicode="&#xab;" horiz-adv-x="813" d="M114 495v70l298 326q0 -114 -24 -158l-140 -203l140 -203q24 -44 24 -158zM401 495v70l298 326q0 -114 -24 -158l-140 -203l140 -203q24 -44 24 -158z" />
<glyph unicode="&#xac;" horiz-adv-x="966" d="M114 715v35h752v-352q0 -20 -20 -36q-24 -16 -57 -16h-35v292h-588q-20 0 -36 20q-16 24 -16 57z" />
<glyph unicode="&#xad;" horiz-adv-x="914" d="M148 532v35h522q21 0 37 -20q15 -23 15 -56v-36h-522q-20 0 -36 20q-16 24 -16 57z" />
<glyph unicode="&#xae;" horiz-adv-x="1461" d="M114 706q0 338 142 504q152 178 482 178q329 0 481 -178q142 -166 142 -504q0 -339 -142 -504q-152 -178 -481 -178q-330 0 -482 178q-142 165 -142 504zM201 706q0 -609 537 -609q536 0 536 609t-536 609q-537 0 -537 -609zM426 287v608q0 109 90 173q81 56 200 56h4 q120 0 201 -57q89 -63 89 -172q0 -171 -170 -237q56 -36 99 -143l103 -228h-51q-35 0 -49 31l-113 253q-26 70 -132 70h-187v-354h-84zM510 714h172q245 0 245 181q0 76 -68 116q-55 36 -140 36t-141 -34q-68 -41 -68 -118v-181z" />
<glyph unicode="&#xaf;" horiz-adv-x="1082" d="M114 1221v35h816q21 0 37 -20q15 -23 15 -56v-36h-816q-20 0 -36 20q-16 24 -16 57z" />
<glyph unicode="&#xb0;" horiz-adv-x="802" d="M114 1134q0 319 294 319t294 -319q0 -320 -294 -320t-294 320zM197 1134q0 -112 41 -171q51 -73 170 -73t171 73q40 59 40 171q0 111 -40 169q-52 73 -171 73t-170 -73q-41 -58 -41 -169z" />
<glyph unicode="&#xb1;" horiz-adv-x="1159" d="M114 91v35h879q21 0 37 -20q15 -23 15 -56v-36h-879q-20 0 -36 20q-16 24 -16 57zM114 715v35h410v358q0 21 20 37q23 15 56 15h36v-410h357q21 0 37 -20q15 -23 15 -56v-36h-409v-357q0 -20 -20 -36q-24 -16 -57 -16h-35v409h-358q-20 0 -36 20q-16 24 -16 57z" />
<glyph unicode="&#xb2;" horiz-adv-x="739" d="M114 603v24q0 85 65 154q42 45 148 114q114 71 154 111q72 73 72 161q0 76 -60 116q-53 35 -135 35q-66 0 -194 -41q-14 0 -27 13q-12 12 -12 29v26q139 50 233 50q117 0 193 -56q85 -62 85 -172q0 -161 -197 -290q-132 -84 -148 -97q-75 -60 -88 -144l397 1q16 0 27 -12 q12 -11 12 -27v-34h-486q-15 0 -27 11q-12 12 -12 28z" />
<glyph unicode="&#xb3;" horiz-adv-x="770" d="M114 607v25q0 18 13 30q12 12 26 12q142 -44 202 -44q133 0 189 46q43 40 43 116q0 77 -44 113q-54 44 -188 44h-87v73h87q115 5 159 43q37 32 37 102q0 76 -61 116q-52 35 -135 35q-48 0 -176 -41q-14 0 -27 13q-12 12 -12 29v26q139 50 215 50h1q118 0 195 -57 q83 -62 83 -171q0 -119 -130 -180q166 -50 166 -195q0 -235 -315 -235q-102 0 -241 50z" />
<glyph unicode="&#xb4;" horiz-adv-x="608" d="M120 1161l274 241q22 10 42 10q56 0 72 -103l-357 -185z" />
<glyph unicode="&#xb5;" horiz-adv-x="1077" d="M114 -169v1191h74q30 0 52 -22t22 -52v-590q0 -218 232 -218q263 0 335 206v602q0 30 22 52t52 22h74v-1008h-74q-30 0 -52 21q-22 22 -22 53v154q-115 -240 -362 -240q-110 0 -205 40v-285h-74q-30 0 -52 22t-22 52z" />
<glyph unicode="&#xb6;" horiz-adv-x="1177" d="M114 1048q0 167 58 249q71 100 242 100h17v2h646v-61q0 -21 -20 -37q-22 -17 -54 -17h-76v-1196q0 -32 -17 -54q-16 -20 -37 -20h-61v1270h-190v-1196q0 -32 -17 -54q-16 -20 -37 -20h-61v693q-52 -9 -93 -9q-171 0 -242 100q-58 83 -58 250z" />
<glyph unicode="&#xb7;" horiz-adv-x="357" d="M161 536v93q0 27 20 45q19 18 46 18h68v-93q0 -27 -20 -45t-48 -18h-66z" />
<glyph unicode="&#xb8;" horiz-adv-x="567" d="M114 -267q0 14 11 15h4q6 0 13 -2q96 -38 154 -38q47 0 72 27q9 21 9 39q0 82 -146 123l48 91h65l-33 -50q156 -76 156 -166q0 -48 -40 -102q-49 -46 -119 -46q-83 0 -190 62l-4 43v4z" />
<glyph unicode="&#xb9;" horiz-adv-x="739" d="M114 603v33h221v711l-142 -182h-16q-19 0 -30 17q-6 9 -6 16q0 6 3 11l85 126q31 48 80 48h70q16 0 28 -11q11 -11 11 -28v-707h182q16 0 27 -12q12 -11 12 -27v-34h-486q-15 0 -27 11q-12 12 -12 28z" />
<glyph unicode="&#xba;" horiz-adv-x="846" d="M100 781q0 309 314 309t314 -309q0 -310 -314 -310t-314 310zM113 588v35h479q10 0 18 -20q8 -23 8 -56v-36h-479q-10 0 -18 20q-8 24 -8 57zM198 781q0 -105 42 -160q52 -67 174 -67t174 67q42 55 42 160t-42 159q-52 67 -174 67t-174 -67q-42 -54 -42 -159z" />
<glyph unicode="&#xbb;" horiz-adv-x="813" d="M114 169q0 114 24 158l140 203l-140 203q-24 44 -24 158l298 -326v-70zM401 169q0 114 24 158l140 203l-140 203q-24 44 -24 158l298 -326v-70z" />
<glyph unicode="&#xbc;" horiz-adv-x="2079" d="M114 603v33h221v711l-142 -182h-16q-19 0 -30 17q-6 9 -6 16q0 6 3 11l85 126q31 48 80 48h70q16 0 28 -11q11 -11 11 -28v-707h182q16 0 27 -12q12 -11 12 -27v-34h-486q-15 0 -27 11q-12 12 -12 28zM820 14l274 1327q6 25 21 41q16 16 43 16h31l-274 -1327 q-6 -25 -21 -41q-16 -16 -43 -16h-31zM1370 259v57l299 469q32 48 81 48h69q16 0 28 -11q11 -11 11 -28v-501h67q16 0 28 -13q12 -11 12 -28v-34h-107v-204h-44q-16 0 -27 11q-11 12 -11 28v165h-365q-17 0 -29 12t-12 29zM1450 293h326v511z" />
<glyph unicode="&#xbd;" horiz-adv-x="2009" d="M114 603v33h221v711l-142 -182h-16q-19 0 -30 17q-6 9 -6 16q0 6 3 11l85 126q31 48 80 48h70q16 0 28 -11q11 -11 11 -28v-707h182q16 0 27 -12q12 -11 12 -27v-34h-486q-15 0 -27 11q-12 12 -12 28zM820 14l274 1327q6 25 21 41q16 16 43 16h31l-274 -1327 q-6 -25 -21 -41q-16 -16 -43 -16h-31zM1370 53v24q0 85 65 154q42 45 148 114q114 71 154 111q72 73 72 161q0 76 -60 116q-53 35 -135 35q-66 0 -194 -41q-14 0 -27 13q-12 12 -12 29v26q139 50 233 50q117 0 193 -56q85 -62 85 -172q0 -161 -197 -290q-132 -84 -148 -97 q-75 -60 -88 -144l397 1q16 0 27 -12q12 -11 12 -27v-34h-486q-15 0 -27 11q-12 12 -12 28z" />
<glyph unicode="&#xbe;" horiz-adv-x="2110" d="M114 607v25q0 18 13 30q12 12 26 12q142 -44 202 -44q133 0 189 46q43 40 43 116q0 77 -44 113q-54 44 -188 44h-87v73h87q115 5 159 43q37 32 37 102q0 76 -61 116q-52 35 -135 35q-48 0 -176 -41q-14 0 -27 13q-12 12 -12 29v26q139 50 215 50h1q118 0 195 -57 q83 -62 83 -171q0 -119 -130 -180q166 -50 166 -195q0 -235 -315 -235q-102 0 -241 50zM851 14l274 1327q6 25 21 41q16 16 43 16h31l-274 -1327q-6 -25 -21 -41q-16 -16 -43 -16h-31zM1401 259v57l299 469q32 48 81 48h69q16 0 28 -11q11 -11 11 -28v-501h67q16 0 28 -13 q12 -11 12 -28v-34h-107v-204h-44q-16 0 -27 11q-11 12 -11 28v165h-365q-17 0 -29 12t-12 29zM1481 293h326v511z" />
<glyph unicode="&#xbf;" horiz-adv-x="1152" d="M528 19q0 205 152 288q85 47 339 84l11 217q0 31 22 53q22 21 52 21h36l24 -367q0 -32 -22 -54q-23 -23 -54 -23q-404 0 -404 -219q0 -120 99 -191q86 -62 208 -62q171 0 385 67q30 0 53 -23t23 -56v-50q-239 -85 -461 -85q-195 0 -324 102q-139 111 -139 298zM1008 838 v110q0 31 23 53q23 21 56 21h78v-110q0 -31 -23 -52q-23 -22 -55 -22h-79z" />
<glyph unicode="&#xc0;" d="M31 14l378 1297q25 98 123 98h142q98 0 123 -99l378 -1296h-73q-98 0 -124 100l-64 221h-623l-64 -222q-25 -99 -123 -99h-73zM333 475h540l-228 789h-84zM336 1686q16 103 72 103q20 0 42 -10l274 -241l-31 -37z" />
<glyph unicode="&#xc1;" d="M31 14l378 1297q25 98 123 98h142q98 0 123 -99l378 -1296h-73q-98 0 -124 100l-64 221h-623l-64 -222q-25 -99 -123 -99h-73zM333 475h540l-228 789h-84zM482 1538l274 241q22 10 42 10q56 0 72 -103l-357 -185z" />
<glyph unicode="&#xc2;" d="M31 14l378 1297q25 98 123 98h142q98 0 123 -99l378 -1296h-73q-98 0 -124 100l-64 221h-623l-64 -222q-25 -99 -123 -99h-73zM301 1538q121 104 272 238h61l272 -238l-31 -37l-271 141l-271 -141zM333 475h540l-228 789h-84z" />
<glyph unicode="&#xc3;" d="M31 14l378 1297q25 98 123 98h142q98 0 123 -99l378 -1296h-73q-98 0 -124 100l-64 221h-623l-64 -222q-25 -99 -123 -99h-73zM311 1621q75 87 162 87q55 0 116 -37q81 -49 154 -49q83 0 136 48l17 -47q-81 -97 -173 -97q-54 0 -112 36q-85 52 -160 52t-123 -40zM333 475 h540l-228 789h-84z" />
<glyph unicode="&#xc4;" d="M31 14l378 1297q25 98 123 98h142q98 0 123 -99l378 -1296h-73q-98 0 -124 100l-64 221h-623l-64 -222q-25 -99 -123 -99h-73zM333 475h540l-228 789h-84zM358 1495v111q0 30 23 52t56 22h78v-111q0 -30 -23 -52t-55 -22h-79zM691 1569v111h78q33 0 56 -22t23 -52v-111 h-79q-32 0 -55 22t-23 52z" />
<glyph unicode="&#xc5;" d="M31 14l378 1297q25 98 123 98h142q98 0 123 -99l378 -1296h-73q-98 0 -124 100l-64 221h-623l-64 -222q-25 -99 -123 -99h-73zM333 475h540l-228 789h-84zM437 1610q0 69 48.5 117.5t117.5 48.5t117.5 -48.5t48.5 -117.5q0 -68 -48.5 -117t-117.5 -49t-117.5 49 t-48.5 117zM506 1610q0 -40 28 -68.5t69 -28.5t69.5 28.5t28.5 68.5q0 41 -28.5 69.5t-69.5 28.5t-69 -28.5t-28 -69.5z" />
<glyph unicode="&#xc6;" horiz-adv-x="1870" d="M31 14l378 1297q25 98 123 98h689q58 9 122 9q223 0 462 -86v-50q0 -32 -24 -55q-23 -23 -52 -23q-214 67 -386 67q-176 0 -284 -98q-112 -102 -112 -276v-102h691q31 0 52 -21q22 -22 22 -53v-65h-765v-133q0 -175 112 -276q108 -98 284 -98q172 0 386 67q29 0 52 -23 q24 -23 24 -55v-50q-239 -86 -462 -86q-249 0 -398 135q-87 78 -128 198h-526l-64 -222q-25 -99 -123 -99h-73zM333 475h459q-2 31 -2 48v374q0 211 134 367h-363z" />
<glyph unicode="&#xc7;" horiz-adv-x="1131" d="M50 523v374q0 246 155 386q149 135 399 135q222 0 461 -86v-50q0 -32 -24 -55q-23 -23 -52 -23q-215 67 -385 67q-177 0 -285 -98q-112 -102 -112 -276v-374q0 -175 112 -276q108 -98 285 -98q170 0 385 67q29 0 52 -23q24 -23 24 -55v-50q-226 -81 -444 -86l-43 -64 q156 -76 156 -166q0 -48 -40 -102q-49 -46 -119 -46q-83 0 -190 62l-4 43v4q0 14 11 15h4q6 0 13 -2q96 -38 154 -38q47 0 72 27q9 21 9 39q0 82 -146 123l56 106q-222 19 -349 134q-155 139 -155 386z" />
<glyph unicode="&#xc8;" horiz-adv-x="1133" d="M39 523v374q0 246 155 386q149 135 398 135q223 0 462 -86v-50q0 -32 -24 -55q-23 -23 -52 -23q-214 67 -386 67q-176 0 -284 -98q-112 -102 -112 -276v-102h691q31 0 52 -21q22 -22 22 -53v-65h-765v-133q0 -175 112 -276q108 -98 284 -98q172 0 386 67q29 0 52 -23 q24 -23 24 -55v-50q-239 -86 -462 -86q-249 0 -398 135q-155 139 -155 386zM280 1686q16 103 72 103q20 0 42 -10l274 -241l-31 -37z" />
<glyph unicode="&#xc9;" horiz-adv-x="1133" d="M39 523v374q0 246 155 386q149 135 398 135q223 0 462 -86v-50q0 -32 -24 -55q-23 -23 -52 -23q-214 67 -386 67q-176 0 -284 -98q-112 -102 -112 -276v-102h691q31 0 52 -21q22 -22 22 -53v-65h-765v-133q0 -175 112 -276q108 -98 284 -98q172 0 386 67q29 0 52 -23 q24 -23 24 -55v-50q-239 -86 -462 -86q-249 0 -398 135q-155 139 -155 386zM426 1538l274 241q22 10 42 10q56 0 72 -103l-357 -185z" />
<glyph unicode="&#xca;" horiz-adv-x="1133" d="M39 523v374q0 246 155 386q149 135 398 135q223 0 462 -86v-50q0 -32 -24 -55q-23 -23 -52 -23q-214 67 -386 67q-176 0 -284 -98q-112 -102 -112 -276v-102h691q31 0 52 -21q22 -22 22 -53v-65h-765v-133q0 -175 112 -276q108 -98 284 -98q172 0 386 67q29 0 52 -23 q24 -23 24 -55v-50q-239 -86 -462 -86q-249 0 -398 135q-155 139 -155 386zM244 1538q121 104 272 238h61l272 -238l-31 -37l-271 141l-271 -141z" />
<glyph unicode="&#xcb;" horiz-adv-x="1133" d="M39 523v374q0 246 155 386q149 135 398 135q223 0 462 -86v-50q0 -32 -24 -55q-23 -23 -52 -23q-214 67 -386 67q-176 0 -284 -98q-112 -102 -112 -276v-102h691q31 0 52 -21q22 -22 22 -53v-65h-765v-133q0 -175 112 -276q108 -98 284 -98q172 0 386 67q29 0 52 -23 q24 -23 24 -55v-50q-239 -86 -462 -86q-249 0 -398 135q-155 139 -155 386zM302 1495v111q0 30 23 52t56 22h78v-111q0 -30 -23 -52t-55 -22h-79zM635 1569v111h78q33 0 56 -22t23 -52v-111h-79q-32 0 -55 22t-23 52z" />
<glyph unicode="&#xcc;" horiz-adv-x="449" d="M109 1686q16 103 72 103q20 0 42 -10l274 -241l-31 -37zM297 14v1311q0 30 22 52t52 22h83v-1311q0 -30 -22 -52t-52 -22h-83z" />
<glyph unicode="&#xcd;" horiz-adv-x="449" d="M114 1538l274 241q22 10 42 10q56 0 72 -103l-357 -185zM156 14v1311q0 30 22 52t52 22h83v-1311q0 -30 -22 -52t-52 -22h-83z" />
<glyph unicode="&#xce;" horiz-adv-x="449" d="M114 1538q121 104 272 238h61l272 -238l-31 -37l-271 141l-271 -141zM338 14v1311q0 30 22 52t52 22h83v-1311q0 -30 -22 -52t-52 -22h-83z" />
<glyph unicode="&#xcf;" horiz-adv-x="449" d="M108 1495v111q0 30 23 52t56 22h78v-111q0 -30 -23 -52t-55 -22h-79zM274 14v1311q0 30 22 52t52 22h83v-1311q0 -30 -22 -52t-52 -22h-83zM441 1569v111h78q33 0 56 -22t23 -52v-111h-79q-32 0 -55 22t-23 52z" />
<glyph unicode="&#xd0;" horiz-adv-x="1387" d="M-21 737v35h150v125q0 246 155 386q149 135 399 135q249 0 398 -135q155 -140 155 -386v-362q0 -247 -155 -386q-149 -135 -398 -135h-554v646h-98q-20 0 -36 20q-16 24 -16 57zM286 154h397q176 0 284 98q112 101 112 275v370q0 174 -112 276q-108 98 -284 98 q-177 0 -285 -98q-112 -102 -112 -276v-125h240q21 0 37 -20q15 -23 15 -56v-36h-292v-506z" />
<glyph unicode="&#xd1;" horiz-adv-x="1397" d="M107 14v1314q0 32 23 55t55 23h182l690 -1290v1290h157v-1314q0 -32 -23 -55t-55 -23h-182l-690 1290v-1212q0 -32 -23 -55t-56 -23h-78zM368 1621q75 87 162 87q55 0 116 -37q81 -49 154 -49q83 0 136 48l17 -47q-81 -97 -173 -97q-54 0 -112 36q-85 52 -160 52 t-123 -40z" />
<glyph unicode="&#xd2;" horiz-adv-x="1324" d="M50 523v374q0 246 155 386q149 135 398 135q250 0 399 -135q155 -140 155 -386v-374q0 -247 -155 -386q-149 -135 -399 -135q-249 0 -398 135q-155 139 -155 386zM207 523q0 -175 112 -276q108 -98 284 -98q177 0 285 98q112 101 112 276v374q0 174 -112 276 q-108 98 -285 98q-176 0 -284 -98q-112 -102 -112 -276v-374zM337 1686q16 103 72 103q20 0 42 -10l274 -241l-31 -37z" />
<glyph unicode="&#xd3;" horiz-adv-x="1324" d="M50 523v374q0 246 155 386q149 135 398 135q250 0 399 -135q155 -140 155 -386v-374q0 -247 -155 -386q-149 -135 -399 -135q-249 0 -398 135q-155 139 -155 386zM207 523q0 -175 112 -276q108 -98 284 -98q177 0 285 98q112 101 112 276v374q0 174 -112 276 q-108 98 -285 98q-176 0 -284 -98q-112 -102 -112 -276v-374zM483 1538l274 241q22 10 42 10q56 0 72 -103l-357 -185z" />
<glyph unicode="&#xd4;" horiz-adv-x="1324" d="M50 523v374q0 246 155 386q149 135 398 135q250 0 399 -135q155 -140 155 -386v-374q0 -247 -155 -386q-149 -135 -399 -135q-249 0 -398 135q-155 139 -155 386zM207 523q0 -175 112 -276q108 -98 284 -98q177 0 285 98q112 101 112 276v374q0 174 -112 276 q-108 98 -285 98q-176 0 -284 -98q-112 -102 -112 -276v-374zM301 1538q121 104 272 238h61l272 -238l-31 -37l-271 141l-271 -141z" />
<glyph unicode="&#xd5;" horiz-adv-x="1324" d="M50 523v374q0 246 155 386q149 135 398 135q250 0 399 -135q155 -140 155 -386v-374q0 -247 -155 -386q-149 -135 -399 -135q-249 0 -398 135q-155 139 -155 386zM207 523q0 -175 112 -276q108 -98 284 -98q177 0 285 98q112 101 112 276v374q0 174 -112 276 q-108 98 -285 98q-176 0 -284 -98q-112 -102 -112 -276v-374zM311 1621q75 87 162 87q55 0 116 -37q81 -49 154 -49q83 0 136 48l17 -47q-81 -97 -173 -97q-54 0 -112 36q-85 52 -160 52t-123 -40z" />
<glyph unicode="&#xd6;" horiz-adv-x="1324" d="M50 523v374q0 246 155 386q149 135 398 135q250 0 399 -135q155 -140 155 -386v-374q0 -247 -155 -386q-149 -135 -399 -135q-249 0 -398 135q-155 139 -155 386zM207 523q0 -175 112 -276q108 -98 284 -98q177 0 285 98q112 101 112 276v374q0 174 -112 276 q-108 98 -285 98q-176 0 -284 -98q-112 -102 -112 -276v-374zM359 1495v111q0 30 23 52t56 22h78v-111q0 -30 -23 -52t-55 -22h-79zM692 1569v111h78q33 0 56 -22t23 -52v-111h-79q-32 0 -55 22t-23 52z" />
<glyph unicode="&#xd7;" horiz-adv-x="957" d="M120 405l290 290l-253 253q-13 13 -13 32q0 4 1 7q6 28 29 51l25 25l290 -290l253 253q13 13 32 13q4 0 7 -1q28 -6 51 -29l25 -25l-289 -289l253 -253q12 -12 12 -31q0 -4 -1 -8q-6 -29 -29 -52l-25 -25l-289 290l-253 -254q-12 -12 -31 -12q-4 0 -8 1q-29 6 -52 29z " />
<glyph unicode="&#xd8;" horiz-adv-x="1310" d="M50 523v374q0 246 155 386q149 135 398 135q32 0 74 -3l16 105q6 36 22 59q16 21 42 21h31l-30 -197q149 -34 244 -120q155 -140 155 -386v-374q0 -247 -155 -386q-149 -135 -399 -135q-24 0 -60 1l-29 -189q-6 -36 -22 -59q-16 -21 -42 -21h-31l43 280q-158 33 -257 123 q-155 139 -155 386zM207 523q0 -175 112 -276q64 -58 165 -86l171 1108q-34 2 -52 2q-176 0 -284 -98q-112 -102 -112 -276v-374zM565 149h38q177 0 285 98q112 101 112 276v374q0 174 -112 276q-59 53 -152 82z" />
<glyph unicode="&#xd9;" horiz-adv-x="1237" d="M96 391v1008h157v-1008q0 -122 108 -187q89 -55 224 -55h5q138 0 228 55q107 66 107 187v1008h157v-1008q0 -185 -152 -292q-137 -96 -339 -97q-203 0 -342 96q-153 107 -153 293zM322 1686q16 103 72 103q20 0 42 -10l274 -241l-31 -37z" />
<glyph unicode="&#xda;" horiz-adv-x="1237" d="M96 391v1008h157v-1008q0 -122 108 -187q89 -55 224 -55h5q138 0 228 55q107 66 107 187v1008h157v-1008q0 -185 -152 -292q-137 -96 -339 -97q-203 0 -342 96q-153 107 -153 293zM468 1538l274 241q22 10 42 10q56 0 72 -103l-357 -185z" />
<glyph unicode="&#xdb;" horiz-adv-x="1237" d="M96 391v1008h157v-1008q0 -122 108 -187q89 -55 224 -55h5q138 0 228 55q107 66 107 187v1008h157v-1008q0 -185 -152 -292q-137 -96 -339 -97q-203 0 -342 96q-153 107 -153 293zM287 1538q121 104 272 238h61l272 -238l-31 -37l-271 141l-271 -141z" />
<glyph unicode="&#xdc;" horiz-adv-x="1237" d="M96 391v1008h157v-1008q0 -122 108 -187q89 -55 224 -55h5q138 0 228 55q107 66 107 187v1008h157v-1008q0 -185 -152 -292q-137 -96 -339 -97q-203 0 -342 96q-153 107 -153 293zM344 1495v111q0 30 23 52t56 22h78v-111q0 -30 -23 -52t-55 -22h-79zM677 1569v111h78 q33 0 56 -22t23 -52v-111h-79q-32 0 -55 22t-23 52z" />
<glyph unicode="&#xdd;" horiz-adv-x="1136" d="M31 1399h77q73 0 88 -55l130 -456q22 -75 60 -96q30 -16 116 -16h125q85 0 115 16q38 21 61 96l130 456q14 55 87 55h77l-141 -514q-43 -159 -98 -204q-53 -40 -215 -44v-549q0 -30 -22 -52t-52 -22h-83v623q-165 1 -214 39q-56 43 -100 209zM443 1538l274 241 q22 10 42 10q56 0 72 -103l-357 -185z" />
<glyph unicode="&#xde;" horiz-adv-x="1157" d="M101 -186v1511q0 30 22 52t52 22h83v-274q152 93 334 93h4q202 -1 339 -97q152 -107 152 -292q0 -430 -554 -430h-275v-585h-157zM258 539h275q397 0 397 290q0 121 -107 187q-90 55 -228 55h-5q-135 0 -224 -55q-108 -65 -108 -187v-290z" />
<glyph unicode="&#xdf;" horiz-adv-x="1259" d="M99 -144v1173q0 186 153 293q138 96 338 96h4q202 -1 339 -97q152 -107 152 -292q0 -201 -198 -298q145 -45 207 -141q51 -84 51 -186q0 -184 -106 -276q-130 -114 -333 -114h-1q-225 0 -308 135q-37 68 -37 241h140q0 -103 33 -162q41 -74 161 -74q119 0 214 70 q80 60 80 180q0 121 -80 181q-95 71 -316 71h-336v-726q0 -30 -22 -52t-52 -22h-83zM256 795h275q225 0 317 62q80 54 80 172q0 121 -107 187q-90 55 -228 55h-5q-135 0 -224 -55q-108 -65 -108 -187v-234z" />
<glyph unicode="&#xe0;" horiz-adv-x="1169" d="M82 518q0 516 476 516q475 0 475 -516v-504h-74q-30 0 -52 22q-22 21 -22 52v155q-115 -241 -362 -241q-441 0 -441 516zM230 518q0 -177 60 -265q76 -113 260 -113q257 0 335 223v155q0 175 -63 265q-79 113 -264 113t-264 -113q-64 -90 -64 -265zM291 1309 q16 103 72 103q20 0 42 -10l274 -241l-31 -37z" />
<glyph unicode="&#xe1;" horiz-adv-x="1169" d="M82 518q0 516 476 516q475 0 475 -516v-504h-74q-30 0 -52 22q-22 21 -22 52v155q-115 -241 -362 -241q-441 0 -441 516zM230 518q0 -177 60 -265q76 -113 260 -113q257 0 335 223v155q0 175 -63 265q-79 113 -264 113t-264 -113q-64 -90 -64 -265zM437 1161l274 241 q22 10 42 10q56 0 72 -103l-357 -185z" />
<glyph unicode="&#xe2;" horiz-adv-x="1169" d="M82 518q0 516 476 516q475 0 475 -516v-504h-74q-30 0 -52 22q-22 21 -22 52v155q-115 -241 -362 -241q-441 0 -441 516zM230 518q0 -177 60 -265q76 -113 260 -113q257 0 335 223v155q0 175 -63 265q-79 113 -264 113t-264 -113q-64 -90 -64 -265zM255 1161 q121 104 272 238h61l272 -238l-31 -37l-271 141l-271 -141z" />
<glyph unicode="&#xe3;" horiz-adv-x="1169" d="M82 518q0 516 476 516q475 0 475 -516v-504h-74q-30 0 -52 22q-22 21 -22 52v155q-115 -241 -362 -241q-441 0 -441 516zM230 518q0 -177 60 -265q76 -113 260 -113q257 0 335 223v155q0 175 -63 265q-79 113 -264 113t-264 -113q-64 -90 -64 -265zM265 1244 q75 87 162 87q55 0 116 -37q81 -49 154 -49q83 0 136 48l17 -47q-81 -97 -173 -97q-54 0 -112 36q-85 52 -160 52t-123 -40z" />
<glyph unicode="&#xe4;" horiz-adv-x="1169" d="M82 518q0 516 476 516q475 0 475 -516v-504h-74q-30 0 -52 22q-22 21 -22 52v155q-115 -241 -362 -241q-441 0 -441 516zM230 518q0 -177 60 -265q76 -113 260 -113q257 0 335 223v155q0 175 -63 265q-79 113 -264 113t-264 -113q-64 -90 -64 -265zM313 1118v111 q0 30 23 52t56 22h78v-111q0 -30 -23 -52t-55 -22h-79zM646 1192v111h78q33 0 56 -22t23 -52v-111h-79q-32 0 -55 22t-23 52z" />
<glyph unicode="&#xe5;" horiz-adv-x="1169" d="M82 518q0 516 476 516q475 0 475 -516v-504h-74q-30 0 -52 22q-22 21 -22 52v155q-115 -241 -362 -241q-441 0 -441 516zM230 518q0 -177 60 -265q76 -113 260 -113q257 0 335 223v155q0 175 -63 265q-79 113 -264 113t-264 -113q-64 -90 -64 -265zM392 1233 q0 69 48.5 117.5t117.5 48.5t117.5 -48.5t48.5 -117.5q0 -68 -48.5 -117t-117.5 -49t-117.5 49t-48.5 117zM461 1233q0 -40 28 -68.5t69 -28.5t69.5 28.5t28.5 68.5q0 41 -28.5 69.5t-69.5 28.5t-69 -28.5t-28 -69.5z" />
<glyph unicode="&#xe6;" horiz-adv-x="1769" d="M83 517q0 67 74 67h645q-8 312 -324 312q-159 0 -322 -60q-18 -5 -32 -5q-33 0 -33 37v76q150 90 387 90q269 0 397 -179q120 179 372 179q242 0 343 -149q82 -121 82 -366q0 -67 -74 -67h-645q8 -312 324 -312q159 0 322 60q18 5 32 5q33 0 33 -37v-76 q-150 -90 -387 -90q-269 0 -397 179q-120 -179 -372 -179q-242 0 -343 149q-82 121 -82 366zM234 444q12 -156 56 -217q63 -87 218 -87q157 0 228 85q56 67 67 219h-569zM952 592h569q-12 156 -56 217q-63 87 -218 87q-157 0 -228 -85q-56 -67 -67 -219z" />
<glyph unicode="&#xe7;" horiz-adv-x="987" d="M82 518q0 516 476 516q237 0 387 -90v-76q0 -37 -33 -37q-14 0 -32 5q-163 60 -322 60q-185 0 -264 -113q-64 -90 -64 -265t64 -265q79 -113 264 -113q159 0 322 60q18 5 32 5q33 0 33 -37v-76q-141 -85 -368 -90l-43 -64q156 -76 156 -166q0 -48 -40 -102 q-49 -46 -119 -46q-83 0 -190 62l-4 43v4q0 14 11 15h4q6 0 13 -2q96 -38 154 -38q47 0 72 27q9 21 9 39q0 82 -146 123l56 106q-428 37 -428 515z" />
<glyph unicode="&#xe8;" horiz-adv-x="1065" d="M83 518q0 516 446 516q242 0 343 -149q82 -121 82 -366q0 -67 -74 -67h-645q8 -312 324 -312q159 0 322 60q18 5 32 5q33 0 33 -37v-76q-150 -90 -387 -90q-476 0 -476 516zM234 592h569q-12 156 -56 217q-63 87 -218 87q-157 0 -228 -85q-56 -67 -67 -219zM252 1309 q16 103 72 103q20 0 42 -10l274 -241l-31 -37z" />
<glyph unicode="&#xe9;" horiz-adv-x="1065" d="M83 518q0 516 446 516q242 0 343 -149q82 -121 82 -366q0 -67 -74 -67h-645q8 -312 324 -312q159 0 322 60q18 5 32 5q33 0 33 -37v-76q-150 -90 -387 -90q-476 0 -476 516zM234 592h569q-12 156 -56 217q-63 87 -218 87q-157 0 -228 -85q-56 -67 -67 -219zM398 1161 l274 241q22 10 42 10q56 0 72 -103l-357 -185z" />
<glyph unicode="&#xea;" horiz-adv-x="1065" d="M83 518q0 516 446 516q242 0 343 -149q82 -121 82 -366q0 -67 -74 -67h-645q8 -312 324 -312q159 0 322 60q18 5 32 5q33 0 33 -37v-76q-150 -90 -387 -90q-476 0 -476 516zM216 1161q121 104 272 238h61l272 -238l-31 -37l-271 141l-271 -141zM234 592h569 q-12 156 -56 217q-63 87 -218 87q-157 0 -228 -85q-56 -67 -67 -219z" />
<glyph unicode="&#xeb;" horiz-adv-x="1065" d="M83 518q0 516 446 516q242 0 343 -149q82 -121 82 -366q0 -67 -74 -67h-645q8 -312 324 -312q159 0 322 60q18 5 32 5q33 0 33 -37v-76q-150 -90 -387 -90q-476 0 -476 516zM234 592h569q-12 156 -56 217q-63 87 -218 87q-157 0 -228 -85q-56 -67 -67 -219zM274 1118v111 q0 30 23 52t56 22h78v-111q0 -30 -23 -52t-55 -22h-79zM607 1192v111h78q33 0 56 -22t23 -52v-111h-79q-32 0 -55 22t-23 52z" />
<glyph unicode="&#xec;" horiz-adv-x="376" d="M115 1309q16 103 72 103q20 0 42 -10l274 -241l-31 -37zM308 14v934q0 31 22 52q22 22 52 22h74v-934q0 -31 -22 -52q-22 -22 -52 -22h-74z" />
<glyph unicode="&#xed;" horiz-adv-x="376" d="M120 1161l274 241q22 10 42 10q56 0 72 -103l-357 -185zM167 14v934q0 31 22 52q22 22 52 22h74v-934q0 -31 -22 -52q-22 -22 -52 -22h-74z" />
<glyph unicode="&#xee;" horiz-adv-x="376" d="M120 1161q121 104 272 238h61l272 -238l-31 -37l-271 141l-271 -141zM348 14v934q0 31 22 52q22 22 52 22h74v-934q0 -31 -22 -52q-22 -22 -52 -22h-74z" />
<glyph unicode="&#xef;" horiz-adv-x="376" d="M114 1118v111q0 30 23 52t56 22h78v-111q0 -30 -23 -52t-55 -22h-79zM285 14v934q0 31 22 52q22 22 52 22h74v-934q0 -31 -22 -52q-22 -22 -52 -22h-74zM447 1192v111h78q33 0 56 -22t23 -52v-111h-79q-32 0 -55 22t-23 52z" />
<glyph unicode="&#xf0;" horiz-adv-x="1129" d="M50 530q20 393 441 416q247 0 379 -276q-59 343 -161 469l-159 -112q-10 -5 -38 -8q-9 -1 -21 -1q-29 0 -68 4l-44 4l253 176q-72 30 -128 30h-10q-42 24 -42 86q0 31 9 63q161 -8 286 -98l111 78q10 5 38 8q9 1 21 1q29 0 68 -4l44 -4l-211 -146q183 -223 183 -686 q0 -516 -475 -516q-476 0 -476 516zM198 530q0 -175 64 -265q79 -113 264 -113t264 113q63 90 63 265v55q-79 223 -335 223q-184 0 -260 -113q-60 -88 -60 -165z" />
<glyph unicode="&#xf1;" horiz-adv-x="1134" d="M125 14v1008h74q30 0 52 -22q22 -21 22 -52v-155q116 241 362 241q353 0 353 -333v-687h-74q-30 0 -52 22q-22 21 -22 52v590q0 218 -232 218q-256 0 -335 -223v-585q0 -31 -22 -52q-22 -22 -52 -22h-74zM264 1244q75 87 162 87q55 0 116 -37q81 -49 154 -49q83 0 136 48 l17 -47q-81 -97 -173 -97q-54 0 -112 36q-85 52 -160 52t-123 -40z" />
<glyph unicode="&#xf2;" horiz-adv-x="1151" d="M82 518q0 516 476 516q475 0 475 -516t-475 -516q-476 0 -476 516zM230 518q0 -175 64 -266q79 -112 264 -112t264 112q63 91 63 266t-63 265q-79 112 -264 112t-264 -112q-64 -90 -64 -265zM291 1309q16 103 72 103q20 0 42 -10l274 -241l-31 -37z" />
<glyph unicode="&#xf3;" horiz-adv-x="1151" d="M82 518q0 516 476 516q475 0 475 -516t-475 -516q-476 0 -476 516zM230 518q0 -175 64 -266q79 -112 264 -112t264 112q63 91 63 266t-63 265q-79 112 -264 112t-264 -112q-64 -90 -64 -265zM437 1161l274 241q22 10 42 10q56 0 72 -103l-357 -185z" />
<glyph unicode="&#xf4;" horiz-adv-x="1151" d="M82 518q0 516 476 516q475 0 475 -516t-475 -516q-476 0 -476 516zM230 518q0 -175 64 -266q79 -112 264 -112t264 112q63 91 63 266t-63 265q-79 112 -264 112t-264 -112q-64 -90 -64 -265zM255 1161q121 104 272 238h61l272 -238l-31 -37l-271 141l-271 -141z" />
<glyph unicode="&#xf5;" horiz-adv-x="1151" d="M82 518q0 516 476 516q475 0 475 -516t-475 -516q-476 0 -476 516zM230 518q0 -175 64 -266q79 -112 264 -112t264 112q63 91 63 266t-63 265q-79 112 -264 112t-264 -112q-64 -90 -64 -265zM265 1244q75 87 162 87q55 0 116 -37q81 -49 154 -49q83 0 136 48l17 -47 q-81 -97 -173 -97q-54 0 -112 36q-85 52 -160 52t-123 -40z" />
<glyph unicode="&#xf6;" horiz-adv-x="1151" d="M82 518q0 516 476 516q475 0 475 -516t-475 -516q-476 0 -476 516zM230 518q0 -175 64 -266q79 -112 264 -112t264 112q63 91 63 266t-63 265q-79 112 -264 112t-264 -112q-64 -90 -64 -265zM313 1118v111q0 30 23 52t56 22h78v-111q0 -30 -23 -52t-55 -22h-79zM646 1192 v111h78q33 0 56 -22t23 -52v-111h-79q-32 0 -55 22t-23 52z" />
<glyph unicode="&#xf7;" horiz-adv-x="1159" d="M114 715v35h879q21 0 37 -20q15 -23 15 -56v-36h-879q-20 0 -36 20q-16 24 -16 57zM501 293v110q0 31 23 52q23 22 55 22h79v-110q0 -31 -23 -53q-23 -21 -56 -21h-78zM501 910v111q0 30 23 52t56 22h78v-111q0 -30 -23 -52t-55 -22h-79z" />
<glyph unicode="&#xf8;" horiz-adv-x="1137" d="M82 518q0 516 476 516q27 0 64 -3l25 118q6 25 21 41q16 16 43 16h31l-39 -186q330 -80 330 -502q0 -516 -475 -516q-27 0 -64 3l-26 -126q-6 -25 -21 -41q-16 -16 -43 -16h-31l41 193q-332 80 -332 503zM230 518q0 -175 64 -266q48 -67 148 -99l152 742h-36 q-185 0 -264 -112q-64 -90 -64 -265zM522 140h36q185 0 264 112q63 91 63 266t-63 265q-48 66 -147 99z" />
<glyph unicode="&#xf9;" horiz-adv-x="1138" d="M123 335v687h74q30 0 52 -22t22 -52v-590q0 -218 232 -218q263 0 335 206v602q0 30 22 52t52 22h74v-1008h-74q-30 0 -52 21q-22 22 -22 53v154q-115 -240 -362 -240q-353 0 -353 333zM288 1309q16 103 72 103q20 0 42 -10l274 -241l-31 -37z" />
<glyph unicode="&#xfa;" horiz-adv-x="1138" d="M123 335v687h74q30 0 52 -22t22 -52v-590q0 -218 232 -218q263 0 335 206v602q0 30 22 52t52 22h74v-1008h-74q-30 0 -52 21q-22 22 -22 53v154q-115 -240 -362 -240q-353 0 -353 333zM434 1161l274 241q22 10 42 10q56 0 72 -103l-357 -185z" />
<glyph unicode="&#xfb;" horiz-adv-x="1138" d="M123 335v687h74q30 0 52 -22t22 -52v-590q0 -218 232 -218q263 0 335 206v602q0 30 22 52t52 22h74v-1008h-74q-30 0 -52 21q-22 22 -22 53v154q-115 -240 -362 -240q-353 0 -353 333zM252 1161q121 104 272 238h61l272 -238l-31 -37l-271 141l-271 -141z" />
<glyph unicode="&#xfc;" horiz-adv-x="1138" d="M123 335v687h74q30 0 52 -22t22 -52v-590q0 -218 232 -218q263 0 335 206v602q0 30 22 52t52 22h74v-1008h-74q-30 0 -52 21q-22 22 -22 53v154q-115 -240 -362 -240q-353 0 -353 333zM310 1118v111q0 30 23 52t56 22h78v-111q0 -30 -23 -52t-55 -22h-79zM643 1192v111 h78q33 0 56 -22t23 -52v-111h-79q-32 0 -55 22t-23 52z" />
<glyph unicode="&#xfd;" horiz-adv-x="1141" d="M122 -208q0 38 34 38q13 0 31 -5q163 -60 323 -60q185 0 264 113q63 90 63 265v99q-115 -240 -362 -240q-353 0 -353 333v687h74q30 0 52 -22t22 -52v-590q0 -218 232 -218q256 0 335 223v585q0 30 22 52t52 22h74v-879q0 -516 -475 -516q-238 0 -388 90v75zM433 1161 l274 241q22 10 42 10q56 0 72 -103l-357 -185z" />
<glyph unicode="&#xfe;" horiz-adv-x="1180" d="M126 -363v1762h74q30 0 52 -22t22 -52v-532q116 241 362 241q441 0 441 -516t-475 -516q-167 0 -328 60v-351q0 -30 -22 -52t-52 -22h-74zM274 202q172 -62 328 -62q180 0 259 106q68 91 68 272q0 182 -64 271q-76 106 -256 106q-262 0 -335 -205v-488z" />
<glyph unicode="&#xff;" horiz-adv-x="1141" d="M122 -208q0 38 34 38q13 0 31 -5q163 -60 323 -60q185 0 264 113q63 90 63 265v99q-115 -240 -362 -240q-353 0 -353 333v687h74q30 0 52 -22t22 -52v-590q0 -218 232 -218q256 0 335 223v585q0 30 22 52t52 22h74v-879q0 -516 -475 -516q-238 0 -388 90v75zM309 1118 v111q0 30 23 52t56 22h78v-111q0 -30 -23 -52t-55 -22h-79zM642 1192v111h78q33 0 56 -22t23 -52v-111h-79q-32 0 -55 22t-23 52z" />
<glyph unicode="&#x152;" horiz-adv-x="2080" d="M50 523v374q0 246 155 386q149 135 398 135q250 0 399 -135q37 -34 76 -88q39 54 77 88q149 135 398 135q223 0 462 -86v-50q0 -32 -24 -55q-23 -23 -52 -23q-214 67 -386 67q-176 0 -284 -98q-112 -102 -112 -276v-102h691q31 0 52 -21q22 -22 22 -53v-65h-765v-133 q0 -175 112 -276q108 -98 284 -98q172 0 386 67q29 0 52 -23q24 -23 24 -55v-50q-239 -86 -462 -86q-249 0 -398 135q-38 34 -77 88q-39 -54 -76 -88q-149 -135 -399 -135q-249 0 -398 135q-155 139 -155 386zM207 523q0 -175 112 -276q108 -98 284 -98q177 0 285 98 q112 101 112 276v374q0 174 -112 276q-108 98 -285 98q-176 0 -284 -98q-112 -102 -112 -276v-374z" />
<glyph unicode="&#x153;" horiz-adv-x="1849" d="M82 518q0 516 476 516q269 0 396 -180q120 180 373 180q242 0 343 -149q82 -121 82 -366q0 -67 -74 -67h-645q8 -312 324 -312q159 0 322 60q18 5 32 5q33 0 33 -37v-76q-150 -90 -387 -90q-273 0 -400 184q-127 -184 -399 -184q-476 0 -476 516zM230 518q0 -175 64 -266 q79 -112 264 -112t264 112q52 74 61 204q-2 30 -2 62q0 33 2 63q-10 129 -61 202q-79 112 -264 112t-264 -112q-64 -90 -64 -265zM1032 592h569q-12 156 -56 217q-63 87 -218 87q-157 0 -228 -85q-56 -67 -67 -219z" />
<glyph unicode="&#x178;" horiz-adv-x="1136" d="M31 1399h77q73 0 88 -55l130 -456q22 -75 60 -96q30 -16 116 -16h125q85 0 115 16q38 21 61 96l130 456q14 55 87 55h77l-141 -514q-43 -159 -98 -204q-53 -40 -215 -44v-549q0 -30 -22 -52t-52 -22h-83v623q-165 1 -214 39q-56 43 -100 209zM319 1495v111q0 30 23 52 t56 22h78v-111q0 -30 -23 -52t-55 -22h-79zM652 1569v111h78q33 0 56 -22t23 -52v-111h-79q-32 0 -55 22t-23 52z" />
<glyph unicode="&#x2c6;" horiz-adv-x="825" d="M120 1161q121 104 272 238h61l272 -238l-31 -37l-271 141l-271 -141z" />
<glyph unicode="&#x2dc;" horiz-adv-x="801" d="M116 1244q75 87 162 87q55 0 116 -37q81 -49 154 -49q83 0 136 48l17 -47q-81 -97 -173 -97q-54 0 -112 36q-85 52 -160 52t-123 -40z" />
<glyph unicode="&#x2000;" horiz-adv-x="894" />
<glyph unicode="&#x2001;" horiz-adv-x="1789" />
<glyph unicode="&#x2002;" horiz-adv-x="894" />
<glyph unicode="&#x2003;" horiz-adv-x="1789" />
<glyph unicode="&#x2004;" horiz-adv-x="596" />
<glyph unicode="&#x2005;" horiz-adv-x="447" />
<glyph unicode="&#x2006;" horiz-adv-x="298" />
<glyph unicode="&#x2007;" horiz-adv-x="298" />
<glyph unicode="&#x2008;" horiz-adv-x="223" />
<glyph unicode="&#x2009;" horiz-adv-x="357" />
<glyph unicode="&#x200a;" horiz-adv-x="99" />
<glyph unicode="&#x2010;" horiz-adv-x="914" d="M148 532v35h522q21 0 37 -20q15 -23 15 -56v-36h-522q-20 0 -36 20q-16 24 -16 57z" />
<glyph unicode="&#x2011;" horiz-adv-x="914" d="M148 532v35h522q21 0 37 -20q15 -23 15 -56v-36h-522q-20 0 -36 20q-16 24 -16 57z" />
<glyph unicode="&#x2012;" horiz-adv-x="914" d="M148 532v35h522q21 0 37 -20q15 -23 15 -56v-36h-522q-20 0 -36 20q-16 24 -16 57z" />
<glyph unicode="&#x2013;" horiz-adv-x="1285" d="M114 532v35h1019q21 0 37 -20q15 -23 15 -56v-36h-1019q-20 0 -36 20q-16 24 -16 57z" />
<glyph unicode="&#x2014;" horiz-adv-x="1936" d="M114 532v35h1670q21 0 37 -20q15 -23 15 -56v-36h-1670q-20 0 -36 20q-16 24 -16 57z" />
<glyph unicode="&#x2018;" horiz-adv-x="459" d="M114 881v17q0 255 177 490q22 29 39 29h29q-88 -143 -88 -462q0 -31 -23 -52q-23 -22 -55 -22h-79z" />
<glyph unicode="&#x2019;" horiz-adv-x="470" d="M125 881q88 143 88 462q0 31 23 52q23 22 55 22h79v-17q0 -255 -177 -490q-22 -29 -39 -29h-29z" />
<glyph unicode="&#x201a;" horiz-adv-x="470" d="M125 -338q88 143 88 462q0 31 23 52q23 22 55 22h79v-17q0 -255 -177 -490q-22 -29 -39 -29h-29z" />
<glyph unicode="&#x201c;" horiz-adv-x="882" d="M114 881v17q0 255 177 490q22 29 39 29h29q-88 -143 -88 -462q0 -31 -23 -52q-23 -22 -55 -22h-79zM512 881v17q0 255 177 490q22 29 39 29h29q-88 -143 -88 -462q0 -31 -23 -52q-23 -22 -55 -22h-79z" />
<glyph unicode="&#x201d;" horiz-adv-x="882" d="M125 881q88 143 88 462q0 31 23 52q23 22 55 22h79v-17q0 -255 -177 -490q-22 -29 -39 -29h-29zM523 881q88 143 88 462q0 31 23 52q23 22 55 22h79v-17q0 -255 -177 -490q-22 -29 -39 -29h-29z" />
<glyph unicode="&#x201e;" horiz-adv-x="882" d="M125 -268q88 143 88 462q0 31 23 52q23 22 55 22h79v-17q0 -255 -177 -490q-22 -29 -39 -29h-29zM523 -268q88 143 88 462q0 31 23 52q23 22 55 22h79v-17q0 -255 -177 -490q-22 -29 -39 -29h-29z" />
<glyph unicode="&#x2022;" horiz-adv-x="952" d="M114 537q0 153 108 261t261 108t261 -108t108 -261q0 -152 -108 -260.5t-261 -108.5t-261 108.5t-108 260.5z" />
<glyph unicode="&#x2026;" horiz-adv-x="1751" d="M114 14v110q0 31 23 52q23 22 55 22h79v-110q0 -31 -23 -53q-23 -21 -56 -21h-78zM797 14v110q0 31 23 52q23 22 55 22h79v-110q0 -31 -23 -53q-23 -21 -56 -21h-78zM1480 14v110q0 31 23 52q23 22 55 22h79v-110q0 -31 -23 -53q-23 -21 -56 -21h-78z" />
<glyph unicode="&#x202f;" horiz-adv-x="357" />
<glyph unicode="&#x2039;" horiz-adv-x="512" d="M114 495v70l298 326q0 -114 -24 -158l-140 -203l140 -203q24 -44 24 -158z" />
<glyph unicode="&#x203a;" horiz-adv-x="512" d="M114 169q0 114 24 158l140 203l-140 203q-24 44 -24 158l298 -326v-70z" />
<glyph unicode="&#x205f;" horiz-adv-x="447" />
<glyph unicode="&#x20ac;" horiz-adv-x="1118" d="M28 569v35h144v188h-96q-18 0 -33 20q-15 24 -15 57v35h144q6 245 141 379q126 135 338 135q188 0 390 -86v-50q0 -32 -21 -55q-19 -23 -42 -23q-182 67 -327 67q-152 0 -245 -99q-69 -97 -75 -268h597q19 0 34 -20q14 -23 14 -56v-36h-645v-188h597q19 0 34 -20 q14 -23 14 -56v-36h-644q12 -156 74 -244q93 -99 245 -99q145 0 327 67q23 0 42 -23q21 -23 21 -55v-50q-202 -86 -390 -86q-212 0 -338 135q-129 126 -140 355h-97q-18 0 -33 20q-15 24 -15 57z" />
<glyph unicode="&#x2122;" horiz-adv-x="1595" d="M80 872v27h407q14 0 24 -9q9 -9 9 -21v-26h-184v-469q0 -12 -10 -21q-10 -8 -24 -8h-37v498h-152q-13 0 -23 8q-10 9 -10 21zM333 345v525q0 13 11 22q10 9 24 9h43q38 0 53 -34l207 -475l208 475q15 34 53 34h42q15 0 25 -9q11 -9 11 -22v-525h-36q-14 0 -25 9 q-10 9 -10 22v477l-208 -478q-14 -30 -45 -30h-29q-31 0 -45 30l-208 478v-477q0 -13 -11 -22q-10 -9 -25 -9h-35z" />
<glyph unicode="&#x25fc;" horiz-adv-x="1020" d="M0 0v1020h1020v-1020h-1020z" />
<glyph unicode="&#xfb03;" horiz-adv-x="1855" d="M26 956v66h142v34q0 201 104 282q91 71 297 71q96 0 184 -20v-74q0 -54 -70 -54q-60 10 -114 10q-130 0 -185 -40q-68 -48 -68 -175v-34h534v34q0 201 104 282q91 71 297 71q96 0 184 -20v-74q0 -54 -70 -54q-60 10 -114 10q-130 0 -185 -40q-68 -48 -68 -175v-34h667 q31 0 52 -22q22 -21 22 -52v-934h-74q-30 0 -52 22q-22 21 -22 52v794h-593v-794q0 -31 -22 -52q-22 -22 -52 -22h-74v868h-534v-794q0 -31 -22 -52q-22 -22 -52 -22h-74v868h-68q-31 0 -52 22q-22 21 -22 52zM1591 1214v111q0 30 22 52t52 22h74v-111q0 -30 -22 -52 t-52 -22h-74z" />
<glyph unicode="&#xfb04;" horiz-adv-x="1882" d="M26 956v66h142v34q0 201 104 282q91 71 297 71q96 0 184 -20v-74q0 -54 -70 -54q-60 10 -114 10q-130 0 -185 -40q-68 -48 -68 -175v-34h534v34q0 201 104 282q91 71 297 71q95 0 326 -23q23 -4 41 -28q21 -22 21 -52v-959q0 -172 56 -190q27 -8 63 -8q24 0 51 4 q70 0 70 -55v-74q-64 -15 -141 -15q-24 0 -47 2q-96 7 -148 73.5t-52 262.5v914q-189 10 -240 10q-130 0 -185 -40q-68 -48 -68 -175v-34h271q31 0 52 -22q22 -21 22 -52v-66h-345v-794q0 -31 -22 -52q-22 -22 -52 -22h-74v868h-534v-794q0 -31 -22 -52q-22 -22 -52 -22h-74 v868h-68q-31 0 -52 22q-22 21 -22 52z" />
</font>
</defs>
</svg>
