<svg xmlns="http://www.w3.org/2000/svg" xmlns:xlink="http://www.w3.org/1999/xlink" version="1.1" x="0px" y="0px" viewBox="0 0 512 512" enable-background="new 0 0 512 512" xml:space="preserve"><style>.link{fill:#fff;}</style><path class="link" d="M156.226 199.679c7.541-7.54 15.902-13.757 24.794-18.659c49.556-27.318 113.117-12.788 145 35.5 l-38.547 38.547c-11.059-25.227-38.5-39.565-65.813-33.456c-10.282 2.3-20.054 7.427-28.039 15.413l-73.898 73.9 c-22.433 22.433-22.432 58.9 0 81.369c22.433 22.4 58.9 22.4 81.4 0l22.78-22.779 c20.71 8.2 42.9 11.5 64.9 9.863l-50.278 50.278c-43.105 43.105-112.991 43.105-156.096 0 c-43.105-43.104-43.106-112.991-0.001-156.096L156.226 199.679z M273.574 82.33l-50.278 50.3 c21.928-1.643 44.2 1.6 64.9 9.865l22.779-22.78c22.434-22.434 58.936-22.434 81.4 0c22.434 22.4 22.4 58.9 0 81.4 l-73.897 73.895c-22.501 22.501-59.061 22.311-81.368 0c-5.202-5.201-9.694-11.678-12.484-18.04l-38.546 38.5 c4.049 6.1 8.3 11.5 13.7 16.858c13.949 13.9 31.7 24.3 52.1 29.251c26.466 6.4 54.8 2.8 79.185-10.592 c8.892-4.903 17.254-11.119 24.794-18.659l73.896-73.895c43.105-43.105 43.105-112.991 0.001-156.097 C386.566 39.2 316.7 39.2 273.6 82.33z"/></svg>