<svg xmlns="http://www.w3.org/2000/svg" xmlns:xlink="http://www.w3.org/1999/xlink" version="1.1" x="0px" y="0px" viewBox="0 0 100 100" enable-background="new 0 0 100 100" xml:space="preserve"><style>.mobile-img{fill:#333;}.blue{fill:#3498db;}</style><g><g><path class="blue" d="M94.761 31.627l-2.015 0.834c-0.68-0.9-1.487-1.704-2.374-2.37l0.835-2.023c0.254-0.612-0.038-1.316-0.65-1.569 l-3.325-1.379c-0.612-0.253-1.314 0.037-1.568 0.649l-0.844 2.022c-1.098-0.156-2.236-0.16-3.354-0.003l-0.834-2.014 c-0.254-0.613-0.942-0.909-1.555-0.655l-3.327 1.378c-0.611 0.253-0.889 0.949-0.635 1.562l0.834 2 c-0.9 0.68-1.704 1.488-2.37 2.375l-2.022-0.835c-0.612-0.254-1.316 0.038-1.57 0.65l-1.378 3.3 c-0.254 0.6 0 1.3 0.6 1.567L71.279 38c-0.157 1.098-0.159 2.237-0.004 3.354l-2.014 0.8 c-0.612 0.253-0.909 0.942-0.655 1.555l1.378 3.325c0.253 0.6 0.9 0.9 1.6 0.636l2.014-0.834 c0.681 0.9 1.5 1.7 2.4 2.371L75.1 51.264c-0.254 0.6 0 1.3 0.7 1.57l3.325 1.4 c0.613 0.3 1.314-0.037 1.568-0.649l0.844-2.022c1.098 0.2 2.2 0.2 3.4 0.004l0.834 2 c0.253 0.6 0.9 0.9 1.6 0.654l3.327-1.377c0.612-0.254 0.89-0.95 0.636-1.563l-0.834-2.013 c0.9-0.682 1.704-1.488 2.37-2.375l2.022 0.835c0.612 0.3 1.316-0.038 1.569-0.65l1.379-3.325 c0.254-0.613-0.036-1.315-0.648-1.568l-2.023-0.844c0.157-1.097 0.16-2.236 0.004-3.354l2.014-0.834 c0.613-0.254 0.909-0.942 0.655-1.555l-1.377-3.325C96.069 31.7 95.4 31.4 94.8 31.627z M85.449 45.2 c-3.062 1.268-6.571-0.186-7.839-3.248c-1.269-3.062 0.185-6.571 3.247-7.839c3.062-1.268 6.6 0.2 7.8 3.2 C89.965 40.4 88.5 43.9 85.4 45.21z"/><path class="mobile-img" d="M80.153 57.488V84h-44V17h44v4.819h5V8c0-4.418-3.582-8-8-8h-38c-4.418 0-8 3.582-8 8v84c0 4.4 3.6 8 8 8h38 c4.418 0 8-3.582 8-8V57.488H80.153z M54.186 9h8c0.553 0 1 0.4 1 1s-0.447 1-1 1h-8c-0.552 0-1-0.448-1-1S53.634 9 54.2 9z M57.853 95.266c-2.209 0-4.001-1.791-4.001-4s1.792-4 4.001-4s3.999 1.8 4 4S60.062 95.3 57.9 95.266z"/></g><rect class="blue" x="2.2" y="25.5" width="24" height="5"/><rect class="blue" x="8.2" y="35.5" width="18" height="5"/><rect class="blue" x="20.2" y="45.5" width="6" height="5"/></g></svg>