<svg xmlns="http://www.w3.org/2000/svg" xmlns:xlink="http://www.w3.org/1999/xlink" version="1.1" x="0px" y="0px" viewBox="0 0 512 512" enable-background="new 0 0 512 512" xml:space="preserve"><style>.pic{fill:#fff;}</style><path class="pic" d="M193.67 243.877c0-14.175 11.492-25.668 25.669-25.668c14.174 0 25.7 11.5 25.7 25.7 c0 14.177-11.492 25.668-25.666 25.668C205.162 269.5 193.7 258.1 193.7 243.877z M323.862 244.699l-42.55 60.5 l-23.123-23.834l-65.246 74.134h203.948L323.862 244.699z M395.381 158.045V92.481H50v261.465h65.612v65.572H462V158.045H395.381z M83.629 320.317V126.112h278.122v31.934H115.612v162.272H83.629z M428.371 385.888h-279.13V191.675h279.13V385.888z"/></svg>