<svg xmlns="http://www.w3.org/2000/svg" xmlns:xlink="http://www.w3.org/1999/xlink" version="1.1" x="0px" y="0px" viewBox="0 0 100 100" enable-background="new 0 0 100 100" xml:space="preserve"><style>.seo{fill:#333;}.green{fill:green;}</style><path class="seo" d="M62.925 93.344c-1.734-1.275-1.918-3.19-1.918-3.19L60.358 86H39.643l-0.652 4.153c0 0-0.181 1.915-1.914 3.2 c-1.732 1.275-3.099 2.369-1.732 2.553c1.317 0.2 13.7 0 14.7 0.001c0.918 0 13.3 0.2 14.655-0.001 C66.022 95.7 64.7 94.6 62.9 93.344z"/><g><rect class="green" x="22.8" y="49.5" width="8" height="15"/><rect class="green" x="39.8" y="42.5" width="8" height="22"/><rect class="green" x="55.8" y="49.5" width="8" height="15"/><rect class="green" x="70.8" y="42.5" width="8" height="22"/><polygon class="green " points="44.6,34.1 60.8,44.4 83.2,28.2 80.8,25 60.7,39.6 44.9,29.4 16.8,43.8 18.7,47.4"/></g><path class="seo" d="M96 16H4c-2.209 0-4 1.791-4 4v58c0 2.2 1.8 4 4 4h92c2.209 0 4-1.791 4-4V20C100 17.8 98.2 16 96 16z M94.001 70 h-88V22h88V70z"/></svg>