<svg xmlns="http://www.w3.org/2000/svg" xmlns:xlink="http://www.w3.org/1999/xlink" version="1.1" x="0px" y="0px" viewBox="0 0 100 100" enable-background="new 0 0 100 100" xml:space="preserve"><style>
	.svg-logo{
		fill: #333;
	}
</style><path class="svg-logo" d="M62.925 93.344c-1.734-1.275-1.918-3.19-1.918-3.19L60.358 86H39.643l-0.652 4.153c0 0-0.181 1.915-1.914 3.2 c-1.732 1.275-3.099 2.369-1.732 2.553c1.317 0.2 13.7 0 14.7 0.001c0.918 0 13.3 0.2 14.655-0.001 C66.022 95.7 64.7 94.6 62.9 93.344z"/><g><path class="svg-logo" d="M26.667 60.152c5.534-0.043 6.223-1.377 8.027-6.932c3.327-8.768 18.3 2.3 9 6.1 C34.433 63.2 21.1 60.2 26.7 60.152z"/><path class="svg-logo" d="M83.411 2.37c-2.687-2.164-7.134-1.098-9.937 2.38L45.083 45.086c-2.803 3.477-2.789 2.813-0.104 5 c2.685 2.2 2 2.3 4.841-1.158l33.377-36.317C85.999 9.1 86.1 4.5 83.4 2.37z M76.111 7.2 c0 0-0.416-0.483-1.799-1.589c2.074-3.387 6.151-2.766 6.151-2.766C76.596 5.1 76.1 7.2 76.1 7.198z"/></g><path class="svg-logo" d="M96.001 16H83.516l-5.514 6h16v48h-88V22h51.192l4.225-6H4.001c-2.209 0-4 1.791-4 4v58c0 2.2 1.8 4 4 4h92 c2.209 0 4-1.791 4-4V20C100.001 17.8 98.2 16 96 16z"/></svg>