<svg xmlns="http://www.w3.org/2000/svg" xmlns:xlink="http://www.w3.org/1999/xlink" version="1.1" x="0px" y="0px" viewBox="0 0 512 512" enable-background="new 0 0 512 512" xml:space="preserve"><style>.wrench{fill:#333;}</style><path class="wrench" d="M398.924 342.582l58.062 58.062c11.06-31.98 3.828-68.883-21.708-94.418 c-19.352-19.353-45.232-28.189-70.553-26.52c-14.38 0.947-28.468-4.359-38.659-14.551l-79.223-79.222 c-10.181-10.181-15.497-24.291-14.55-38.659c1.669-25.32-7.168-51.201-26.521-70.553c-25.536-25.535-62.437-32.766-94.417-21.708 l58.062 58.062c1.333 22.651-33.689 57.674-56.341 56.341l-58.062-58.062c-11.06 31.979-3.828 68.9 21.7 94.4 c19.352 19.4 45.2 28.2 70.6 26.521c14.381-0.948 28.5 4.4 38.7 14.55l79.223 79.2 c10.181 10.2 15.5 24.3 14.6 38.658c-1.669 25.3 7.2 51.2 26.5 70.553c25.536 25.5 62.4 32.8 94.4 21.7 l-58.062-58.062C341.25 376.3 376.3 341.2 398.9 342.582z"/></svg>